<svg xmlns="http://www.w3.org/2000/svg" viewBox="0 0 500 500"><g id="freepik--Shadow--inject-132"><ellipse id="freepik--path--inject-132" cx="250" cy="416.24" rx="193.89" ry="11.32" style="fill:#f5f5f5"></ellipse></g><g id="freepik--Sheets--inject-132"><polygon points="136.87 400.92 139.67 400.92 138.44 407.2 138.29 407.95 138.29 415.67 87.68 415.67 87.89 407.95 86.05 407.95 87.68 402.03 88.84 395.64 82.52 395.64 88.63 393.6 87.68 379.5 86.42 379 87.68 369.75 139.67 369.75 139.16 373.83 138.97 375.4 138.29 380.76 137.16 380.76 137.92 384.67 138.28 386.49 138.29 386.55 142.19 386.55 138.29 388.85 137.99 391.61 136.87 400.92" style="fill:#263238"></polygon><polygon points="136.87 400.92 139.67 400.92 138.44 407.2 138.29 407.95 138.29 415.67 87.68 415.67 87.89 407.95 86.05 407.95 87.68 402.03 88.84 395.64 82.52 395.64 88.63 393.6 87.68 379.5 86.42 379 87.68 369.75 139.67 369.75 139.16 373.83 138.97 375.4 138.29 380.76 137.16 380.76 137.92 384.67 138.28 386.49 138.29 386.55 142.19 386.55 138.29 388.85 137.99 391.61 136.87 400.92" style="fill:#fff;opacity:0.8"></polygon><polygon points="138.28 386.49 108.96 384.67 137.92 384.67 138.28 386.49" style="opacity:0.1"></polygon><polygon points="138.44 407.2 138.29 407.95 138.29 409.11 112.36 407.7 138.29 407.03 138.44 407.2" style="opacity:0.1"></polygon><polygon points="104.51 405.07 89.06 405.94 104.43 406.93 104.42 407.07 104.68 411.61 130.86 412.49 103.55 413.62 103.55 415.67 87.68 415.67 87.89 407.95 86.05 407.95 87.68 402.03 88.84 395.64 82.52 395.64 88.63 393.6 87.68 379.5 86.42 379 87.68 369.75 102.41 369.75 102.41 372.58 90.95 372.58 102.41 374.13 102.41 380.76 134.01 380.76 103.29 382.21 103.29 383.74 102.41 389.07 130.61 390.08 103.29 391 103.79 395.64 103.16 399.02 134.01 400.92 104.68 400.92 104.51 405.07" style="opacity:0.1"></polygon><polygon points="139.16 373.83 138.97 375.4 113.43 373.83 139.16 373.83" style="opacity:0.1"></polygon><polygon points="131.94 415.67 181.31 415.67 181.39 415.04 181.68 412.29 185.59 409.98 181.68 409.98 181.67 409.93 181.32 408.1 180.56 404.2 181.68 404.2 182.36 398.83 182.55 397.27 183.07 393.18 131.07 393.18 129.81 402.43 131.07 402.94 131.94 415.67" style="fill:#263238"></polygon><polygon points="131.94 415.67 181.31 415.67 181.39 415.04 181.68 412.29 185.59 409.98 181.68 409.98 181.67 409.93 181.32 408.1 180.56 404.2 181.68 404.2 182.36 398.83 182.55 397.27 183.07 393.18 131.07 393.18 129.81 402.43 131.07 402.94 131.94 415.67" style="fill:#fff;opacity:0.8"></polygon><polygon points="181.67 409.93 152.35 408.1 181.32 408.1 181.67 409.93" style="opacity:0.1"></polygon><polygon points="131.94 415.67 146.82 415.67 146.68 414.43 174.01 413.52 145.81 412.5 146.68 407.18 146.68 405.65 177.41 404.2 145.81 404.2 145.81 397.56 134.35 396.02 145.81 396.02 145.81 393.18 131.07 393.18 129.81 402.43 131.07 402.94 131.94 415.67" style="opacity:0.1"></polygon><polygon points="182.55 397.27 182.36 398.83 156.82 397.27 182.55 397.27" style="opacity:0.1"></polygon><path d="M151.21,374.61l15.12-7.45s12.67,7.45,34.77,7.45l-10.2,11S168.56,385.82,151.21,374.61Z" style="fill:#263238"></path><path d="M151.21,374.61l15.12-7.45s12.67,7.45,34.77,7.45l-10.2,11S168.56,385.82,151.21,374.61Z" style="fill:#fff;opacity:0.8"></path><path d="M110.07,353.59l5.1-13.59s19.09-9.07,38.44-7.93l-5,15.86S128.77,345.1,110.07,353.59Z" style="fill:#263238"></path><path d="M110.07,353.59l5.1-13.59s19.09-9.07,38.44-7.93l-5,15.86S128.77,345.1,110.07,353.59Z" style="fill:#fff;opacity:0.8"></path><path d="M227,347.36l-14.53,10.58s26,8.68,44.66,5.85l9-19.64S243,353.4,227,347.36Z" style="fill:#263238"></path><path d="M227,347.36l-14.53,10.58s26,8.68,44.66,5.85l9-19.64S243,353.4,227,347.36Z" style="fill:#fff;opacity:0.8"></path></g><g id="freepik--Documents--inject-132"><rect x="275.7" y="336.08" width="29.85" height="37.01" style="fill:#8BBEB2"></rect><rect x="275.7" y="336.08" width="29.85" height="37.01" style="fill:#fff;opacity:0.30000000000000004"></rect><polygon points="279.32 333 279.32 359.73 289.61 370.02 309.16 370.02 309.16 333 279.32 333" style="fill:#8BBEB2"></polygon><polygon points="279.32 333 279.32 359.73 289.61 370.02 309.16 370.02 309.16 333 279.32 333" style="fill:#fff;opacity:0.6000000000000001"></polygon><polygon points="279.32 359.73 289.61 370.02 289.61 359.73 279.32 359.73" style="fill:#fff;opacity:0.4"></polygon><rect x="329.96" y="364.39" width="29.85" height="37.01" style="fill:#8BBEB2"></rect><rect x="329.96" y="364.39" width="29.85" height="37.01" style="fill:#fff;opacity:0.30000000000000004"></rect><polygon points="333.58 361.32 333.58 388.04 343.87 398.33 363.43 398.33 363.43 361.32 333.58 361.32" style="fill:#8BBEB2"></polygon><polygon points="333.58 361.32 333.58 388.04 343.87 398.33 363.43 398.33 363.43 361.32 333.58 361.32" style="fill:#fff;opacity:0.6000000000000001"></polygon><polygon points="333.58 388.04 343.87 398.33 343.87 388.04 333.58 388.04" style="fill:#fff;opacity:0.4"></polygon><rect x="377.31" y="317.91" width="29.85" height="37.01" style="fill:#8BBEB2"></rect><rect x="377.31" y="317.91" width="29.85" height="37.01" style="fill:#fff;opacity:0.30000000000000004"></rect><polygon points="380.93 314.84 380.93 341.56 391.22 351.85 410.77 351.85 410.77 314.84 380.93 314.84" style="fill:#8BBEB2"></polygon><polygon points="380.93 314.84 380.93 341.56 391.22 351.85 410.77 351.85 410.77 314.84 380.93 314.84" style="fill:#fff;opacity:0.6000000000000001"></polygon><polygon points="380.93 341.56 391.22 351.85 391.22 341.56 380.93 341.56" style="fill:#fff;opacity:0.4"></polygon></g><g id="freepik--clouds-2--inject-132"><path d="M417.55,148.45a6.68,6.68,0,0,0-6.69-6.69,6.81,6.81,0,0,0-1.92.28,13.84,13.84,0,0,0,.15-2,14.17,14.17,0,0,0-16.77-13.92,12.37,12.37,0,0,0-22.95,6.26h-.2a11.41,11.41,0,0,0,0,22.82h41.88A6.69,6.69,0,0,0,417.55,148.45Z" style="fill:#263238"></path><path d="M417.55,148.45a6.68,6.68,0,0,0-6.69-6.69,6.81,6.81,0,0,0-1.92.28,13.84,13.84,0,0,0,.15-2,14.17,14.17,0,0,0-16.77-13.92,12.37,12.37,0,0,0-22.95,6.26h-.2a11.41,11.41,0,0,0,0,22.82h41.88A6.69,6.69,0,0,0,417.55,148.45Z" style="fill:#fafafa;opacity:0.8"></path><path d="M330,112.22a4.3,4.3,0,0,0-4.29-4.29,4.16,4.16,0,0,0-1.23.19,9.53,9.53,0,0,0,.1-1.32,9.08,9.08,0,0,0-9.09-9.08,9.18,9.18,0,0,0-1.67.15,7.94,7.94,0,0,0-14.72,4h-.14a7.32,7.32,0,0,0,0,14.63h26.87A4.29,4.29,0,0,0,330,112.22Z" style="fill:#263238"></path><path d="M330,112.22a4.3,4.3,0,0,0-4.29-4.29,4.16,4.16,0,0,0-1.23.19,9.53,9.53,0,0,0,.1-1.32,9.08,9.08,0,0,0-9.09-9.08,9.18,9.18,0,0,0-1.67.15,7.94,7.94,0,0,0-14.72,4h-.14a7.32,7.32,0,0,0,0,14.63h26.87A4.29,4.29,0,0,0,330,112.22Z" style="fill:#fafafa;opacity:0.8"></path><polygon points="315.04 108.64 304.13 108.64 304.13 120.61 301.44 120.61 309.58 128.81 317.73 120.61 315.04 120.61 315.04 108.64" style="fill:#8BBEB2"></polygon><polygon points="315.04 108.64 304.13 108.64 304.13 120.61 301.44 120.61 309.58 128.81 317.73 120.61 315.04 120.61 315.04 108.64" style="fill:#fff;opacity:0.4"></polygon><polygon points="378.15 167.64 395.15 167.64 395.15 148.98 399.35 148.98 386.65 136.19 373.96 148.98 378.15 148.98 378.15 167.64" style="fill:#8BBEB2"></polygon><polygon points="378.15 167.64 395.15 167.64 395.15 148.98 399.35 148.98 386.65 136.19 373.96 148.98 378.15 148.98 378.15 167.64" style="fill:#fff;opacity:0.4"></polygon></g><g id="freepik--clouds-1--inject-132"><path d="M154.36,99.58a2.89,2.89,0,0,0-2.9-2.89,2.92,2.92,0,0,0-.83.12,5.18,5.18,0,0,0,.07-.89,6.12,6.12,0,0,0-6.12-6.12,6,6,0,0,0-1.13.11,5.35,5.35,0,0,0-9.92,2.7h-.09a4.93,4.93,0,0,0,0,9.86h18.11A2.9,2.9,0,0,0,154.36,99.58Z" style="fill:#8BBEB2"></path><path d="M154.36,99.58a2.89,2.89,0,0,0-2.9-2.89,2.92,2.92,0,0,0-.83.12,5.18,5.18,0,0,0,.07-.89,6.12,6.12,0,0,0-6.12-6.12,6,6,0,0,0-1.13.11,5.35,5.35,0,0,0-9.92,2.7h-.09a4.93,4.93,0,0,0,0,9.86h18.11A2.9,2.9,0,0,0,154.36,99.58Z" style="fill:#fafafa;opacity:0.7000000000000001"></path><path d="M168.88,134.67h14.6a9.28,9.28,0,0,1-.06-1.06A9.61,9.61,0,0,1,193,124h.35a8.5,8.5,0,0,1,16.47,3v0a8.11,8.11,0,0,1,7.72,7.67H218a4.28,4.28,0,0,1,0,8.55H168.88a4.28,4.28,0,1,1,0-8.55Z" style="fill:#8BBEB2"></path><path d="M168.88,134.67h14.6a9.28,9.28,0,0,1-.06-1.06A9.61,9.61,0,0,1,193,124h.35a8.5,8.5,0,0,1,16.47,3v0a8.11,8.11,0,0,1,7.72,7.67H218a4.28,4.28,0,0,1,0,8.55H168.88a4.28,4.28,0,1,1,0-8.55Z" style="fill:#fafafa;opacity:0.7000000000000001"></path><path d="M89.22,160a17.78,17.78,0,0,1,30.32.25,9.44,9.44,0,0,1,2.57-.36,9.54,9.54,0,0,1,9.53,9.54h5a4.76,4.76,0,0,1,0,9.52H119.32a17.77,17.77,0,0,1-27.73,2.92c-.3,0-.6,0-.91,0A11,11,0,0,1,89.22,160Z" style="fill:#8BBEB2"></path><path d="M89.22,160a17.78,17.78,0,0,1,30.32.25,9.44,9.44,0,0,1,2.57-.36,9.54,9.54,0,0,1,9.53,9.54h5a4.76,4.76,0,0,1,0,9.52H119.32a17.77,17.77,0,0,1-27.73,2.92c-.3,0-.6,0-.91,0A11,11,0,0,1,89.22,160Z" style="fill:#fafafa;opacity:0.7000000000000001"></path></g><g id="freepik--Arrow--inject-132"><path d="M334,242.09a3.93,3.93,0,1,0,3.62-2.42,3.79,3.79,0,0,0-1.5.3l-3-3L346,224.12h27a3.92,3.92,0,1,0,.08-3H345.36a1.5,1.5,0,0,0-1.06.44l-13.92,13.91h-90v3h90Zm43.58-19.37a.91.91,0,0,1-.81.9v-1.8A.91.91,0,0,1,377.58,222.72Zm-40,21.79a.91.91,0,0,1-.65-.27l1.31-1.3a.94.94,0,0,1,.27.65A.93.93,0,0,1,337.62,244.51Z" style="fill:#8BBEB2"></path><path d="M427.67,258.49a3.93,3.93,0,0,0-3.92,3.92,3.52,3.52,0,0,0,.12.92l-19.09,14a3.87,3.87,0,0,0-2-.56,3.8,3.8,0,0,0-1.55.32l-12.73-12.73,4.28-4.28H407.6a3.92,3.92,0,1,0,0-3H392.17a1.5,1.5,0,0,0-1.06.44l-13,13-2.79-2.79a1.5,1.5,0,0,0-1.06-.44h-138v3H373.63l17.14,17.13-12,8.87a3.92,3.92,0,1,0,1.84,3.32,4.32,4.32,0,0,0-.1-.88L394,288.77a1.47,1.47,0,0,0,.61-1.1,1.51,1.51,0,0,0-.44-1.17l-13.9-13.89,6.17-6.17,12.76,12.77a3.81,3.81,0,0,0-.28,1.44,3.92,3.92,0,1,0,7.84,0,3.85,3.85,0,0,0-.13-1l19.06-13.93a3.88,3.88,0,0,0,2,.58,3.92,3.92,0,0,0,0-7.84Zm-15.52.05a.92.92,0,0,1-.92.92v-1.84A.92.92,0,0,1,412.15,258.54Zm-36.41,41a.9.9,0,0,1,.45-.78l1.07,1.46a.91.91,0,0,1-1.52-.68Zm52.46-36.44-1.07-1.46a.93.93,0,0,1,.54-.19.91.91,0,0,1,.53,1.65Z" style="fill:#8BBEB2"></path><path d="M439.9,249.55a3.85,3.85,0,0,0-2,.59L436,248.79a1.5,1.5,0,0,0-.89-.29H351.72l10-10h51.93a3.92,3.92,0,1,0,0-3H382.13l5.43-5.43h8.63a1.51,1.51,0,0,0,1.21-.61l1.2-1.64a3.6,3.6,0,0,0,.93.13,4,4,0,1,0-3.35-1.9l-.75,1h-7V214.8a1.53,1.53,0,0,0-.61-1.21l-7.26-5.3a3.94,3.94,0,1,0-1.77,2.43l6.64,4.85v12.35l-7.55,7.55H361.64l-2.91-2.92a3.92,3.92,0,1,0-3.62,2.43,3.8,3.8,0,0,0,1.5-.31L359,237,344,252H240.34v3H344.62a1.5,1.5,0,0,0,1.06-.44l3-3h85.93l1.45,1.06a3.92,3.92,0,1,0,3.8-3Zm-40.37-26.48a.92.92,0,0,1,.92.92.91.91,0,0,1-.19.54l-1.46-1.07A.89.89,0,0,1,399.53,223.07Zm-22.76-16.62a.9.9,0,0,1,.53.19l-1.07,1.47a.91.91,0,0,1-.39-.73A.93.93,0,0,1,376.77,206.45ZM418.22,237a.92.92,0,0,1-.92.92v-1.84A.92.92,0,0,1,418.22,237Zm-63.11-6.84a.91.91,0,0,1,.65.27l-1.31,1.3a.92.92,0,0,1,.66-1.57ZM439.9,254.4a.9.9,0,0,1-.53-.19l1.07-1.47a.92.92,0,0,1,.39.74A.93.93,0,0,1,439.9,254.4Z" style="fill:#8BBEB2"></path><path d="M376.77,288.26a3.93,3.93,0,1,0-3.63-5.43H240.34v3h132.8A3.94,3.94,0,0,0,376.77,288.26Zm.92-3.93a.92.92,0,0,1-.88.92v-1.83A.91.91,0,0,1,377.69,284.33Z" style="fill:#8BBEB2"></path><path d="M324,226.64a3.92,3.92,0,1,0-3.57-5.52H240.34v3h80A3.92,3.92,0,0,0,324,226.64Zm.93-3.92a.93.93,0,0,1-.93.92V221.8A.93.93,0,0,1,324.9,222.72Z" style="fill:#8BBEB2"></path><g style="isolation:isolate;opacity:0.2"><path d="M334,242.09a3.93,3.93,0,1,0,3.62-2.42,3.79,3.79,0,0,0-1.5.3l-3-3L346,224.12h27a3.92,3.92,0,1,0,.08-3H345.36a1.5,1.5,0,0,0-1.06.44l-13.92,13.91h-90v3h90Zm43.58-19.37a.91.91,0,0,1-.81.9v-1.8A.91.91,0,0,1,377.58,222.72Zm-40,21.79a.91.91,0,0,1-.65-.27l1.31-1.3a.94.94,0,0,1,.27.65A.93.93,0,0,1,337.62,244.51Z" style="fill:#fff"></path><path d="M427.67,258.49a3.93,3.93,0,0,0-3.92,3.92,3.52,3.52,0,0,0,.12.92l-19.09,14a3.87,3.87,0,0,0-2-.56,3.8,3.8,0,0,0-1.55.32l-12.73-12.73,4.28-4.28H407.6a3.92,3.92,0,1,0,0-3H392.17a1.5,1.5,0,0,0-1.06.44l-13,13-2.79-2.79a1.5,1.5,0,0,0-1.06-.44h-138v3H373.63l17.14,17.13-12,8.87a3.92,3.92,0,1,0,1.84,3.32,4.32,4.32,0,0,0-.1-.88L394,288.77a1.47,1.47,0,0,0,.61-1.1,1.51,1.51,0,0,0-.44-1.17l-13.9-13.89,6.17-6.17,12.76,12.77a3.81,3.81,0,0,0-.28,1.44,3.92,3.92,0,1,0,7.84,0,3.85,3.85,0,0,0-.13-1l19.06-13.93a3.88,3.88,0,0,0,2,.58,3.92,3.92,0,0,0,0-7.84Zm-15.52.05a.92.92,0,0,1-.92.92v-1.84A.92.92,0,0,1,412.15,258.54Zm-36.41,41a.9.9,0,0,1,.45-.78l1.07,1.46a.91.91,0,0,1-1.52-.68Zm52.46-36.44-1.07-1.46a.93.93,0,0,1,.54-.19.91.91,0,0,1,.53,1.65Z" style="fill:#fff"></path><path d="M439.9,249.55a3.85,3.85,0,0,0-2,.59L436,248.79a1.5,1.5,0,0,0-.89-.29H351.72l10-10h51.93a3.92,3.92,0,1,0,0-3H382.13l5.43-5.43h8.63a1.51,1.51,0,0,0,1.21-.61l1.2-1.64a3.6,3.6,0,0,0,.93.13,4,4,0,1,0-3.35-1.9l-.75,1h-7V214.8a1.53,1.53,0,0,0-.61-1.21l-7.26-5.3a3.94,3.94,0,1,0-1.77,2.43l6.64,4.85v12.35l-7.55,7.55H361.64l-2.91-2.92a3.92,3.92,0,1,0-3.62,2.43,3.8,3.8,0,0,0,1.5-.31L359,237,344,252H240.34v3H344.62a1.5,1.5,0,0,0,1.06-.44l3-3h85.93l1.45,1.06a3.92,3.92,0,1,0,3.8-3Zm-40.37-26.48a.92.92,0,0,1,.92.92.91.91,0,0,1-.19.54l-1.46-1.07A.89.89,0,0,1,399.53,223.07Zm-22.76-16.62a.9.9,0,0,1,.53.19l-1.07,1.47a.91.91,0,0,1-.39-.73A.93.93,0,0,1,376.77,206.45ZM418.22,237a.92.92,0,0,1-.92.92v-1.84A.92.92,0,0,1,418.22,237Zm-63.11-6.84a.91.91,0,0,1,.65.27l-1.31,1.3a.92.92,0,0,1,.66-1.57ZM439.9,254.4a.9.9,0,0,1-.53-.19l1.07-1.47a.92.92,0,0,1,.39.74A.93.93,0,0,1,439.9,254.4Z" style="fill:#fff"></path><path d="M376.77,288.26a3.93,3.93,0,1,0-3.63-5.43H240.34v3h132.8A3.94,3.94,0,0,0,376.77,288.26Zm.92-3.93a.92.92,0,0,1-.88.92v-1.83A.91.91,0,0,1,377.69,284.33Z" style="fill:#fff"></path><path d="M324,226.64a3.92,3.92,0,1,0-3.57-5.52H240.34v3h80A3.92,3.92,0,0,0,324,226.64Zm.93-3.92a.93.93,0,0,1-.93.92V221.8A.93.93,0,0,1,324.9,222.72Z" style="fill:#fff"></path></g><path d="M379.08,222.72a2.42,2.42,0,1,1-2.42-2.42A2.42,2.42,0,0,1,379.08,222.72Z" style="fill:#fff"></path><path d="M379.19,207.38a2.43,2.43,0,1,1-2.42-2.43A2.43,2.43,0,0,1,379.19,207.38Z" style="fill:#fff"></path><circle cx="417.3" cy="236.97" r="2.42" style="fill:#fff"></circle><path d="M413.65,258.54a2.43,2.43,0,1,1-2.42-2.42A2.42,2.42,0,0,1,413.65,258.54Z" style="fill:#fff"></path><path d="M430.09,262.41a2.42,2.42,0,1,1-2.42-2.42A2.42,2.42,0,0,1,430.09,262.41Z" style="fill:#fff"></path><path d="M405.21,280.65a2.42,2.42,0,1,1-2.42-2.42A2.42,2.42,0,0,1,405.21,280.65Z" style="fill:#fff"></path><path d="M442.33,253.48a2.43,2.43,0,1,1-2.43-2.43A2.43,2.43,0,0,1,442.33,253.48Z" style="fill:#fff"></path><path d="M379.08,299.58a2.42,2.42,0,1,1-2.42-2.43A2.42,2.42,0,0,1,379.08,299.58Z" style="fill:#fff"></path><path d="M379.19,284.33a2.43,2.43,0,1,1-2.42-2.42A2.43,2.43,0,0,1,379.19,284.33Z" style="fill:#fff"></path><path d="M357.53,231.05a2.43,2.43,0,1,1-2.42-2.42A2.43,2.43,0,0,1,357.53,231.05Z" style="fill:#fff"></path><circle cx="337.62" cy="243.59" r="2.42" style="fill:#fff"></circle><path d="M326.4,222.72A2.43,2.43,0,1,1,324,220.3,2.42,2.42,0,0,1,326.4,222.72Z" style="fill:#fff"></path><path d="M402,224a2.43,2.43,0,1,1-2.42-2.42A2.42,2.42,0,0,1,402,224Z" style="fill:#fff"></path><polygon points="283.95 246.33 291.56 246.33 291.56 240.79 295.38 240.79 295.38 233.15 291.56 233.15 291.56 227.61 275.99 227.61 275.99 219.62 102.06 219.62 98.23 219.62 94.41 219.62 94.41 227.26 98.23 227.26 98.23 230.25 89.93 230.25 84.66 230.25 84.66 222.81 72.65 222.81 72.65 234.82 82.48 234.82 82.48 244.31 76.48 244.31 76.48 257.76 89.93 257.76 89.93 264.32 92.6 264.32 92.6 267.5 86.37 267.5 86.37 271.25 80.83 271.25 80.83 278.89 86.37 278.89 86.37 287.33 98.23 287.33 99.82 287.33 270.72 287.33 270.72 287.32 287.14 287.32 287.14 279.68 276.63 279.68 276.63 275.49 293.87 275.49 293.87 262.04 288.88 262.04 288.88 257.3 305.43 257.3 305.43 249.65 283.95 249.65 283.95 246.33" style="fill:#8BBEB2"></polygon><rect x="64.15" y="249.66" width="7.64" height="7.64" style="fill:#8BBEB2"></rect><rect x="67.97" y="272.51" width="7.64" height="7.64" style="fill:#8BBEB2"></rect><rect x="50.82" y="257.54" width="7.64" height="7.64" style="fill:#8BBEB2"></rect><rect x="56.82" y="235.08" width="7.64" height="7.64" style="fill:#8BBEB2"></rect><rect x="312.66" y="264.94" width="7.64" height="7.64" style="fill:#8BBEB2"></rect><g style="isolation:isolate;opacity:0.2"><polygon points="283.95 246.33 291.56 246.33 291.56 240.79 295.38 240.79 295.38 233.15 291.56 233.15 291.56 227.61 275.99 227.61 275.99 219.62 102.06 219.62 98.23 219.62 94.41 219.62 94.41 227.26 98.23 227.26 98.23 230.25 89.93 230.25 84.66 230.25 84.66 222.81 72.65 222.81 72.65 234.82 82.48 234.82 82.48 244.31 76.48 244.31 76.48 257.76 89.93 257.76 89.93 264.32 92.6 264.32 92.6 267.5 86.37 267.5 86.37 271.25 80.83 271.25 80.83 278.89 86.37 278.89 86.37 287.33 98.23 287.33 99.82 287.33 270.72 287.33 270.72 287.32 287.14 287.32 287.14 279.68 276.63 279.68 276.63 275.49 293.87 275.49 293.87 262.04 288.88 262.04 288.88 257.3 305.43 257.3 305.43 249.65 283.95 249.65 283.95 246.33" style="fill:#fff"></polygon><rect x="64.15" y="249.66" width="7.64" height="7.64" style="fill:#fff"></rect><rect x="67.97" y="272.51" width="7.64" height="7.64" style="fill:#fff"></rect><rect x="50.82" y="257.54" width="7.64" height="7.64" style="fill:#fff"></rect><rect x="56.82" y="235.08" width="7.64" height="7.64" style="fill:#fff"></rect><rect x="312.66" y="264.94" width="7.64" height="7.64" style="fill:#fff"></rect></g></g><g id="freepik--Character--inject-132"><path d="M334.85,194.43l-4.46-.49a1.86,1.86,0,0,0-1.94,1.2l-1.62,4.35a1.16,1.16,0,0,0-.08.32c-.2,1.15-1.24,7.83,1,10.73l3.84-1.19,5.51-7.94a1.84,1.84,0,0,0,.28-1.49l-1-4.08A1.84,1.84,0,0,0,334.85,194.43Z" style="fill:#e4897b"></path><path d="M288,198.8c6.64,4.71,16.15,11.6,22.81,16.06l.18.12-.06,0c-.12-.06-.51,0-.18,0a4.86,4.86,0,0,0,1.86-.38c5.72-2.36,11-6.89,15.93-10.89l4.08,3.61c-4.89,6.73-14.86,19.1-24.43,17.1a9.53,9.53,0,0,1-2.51-1c-4.34-2.37-8.53-4.92-12.61-7.58s-7.82-5.27-11.62-8.17L288,198.8Z" style="fill:#dc897c"></path><path d="M272.08,204.39c1.54,3.31,28.2,17.18,28.2,17.18l7.7-9.39s-21.11-18.8-25.8-18C277.3,195,270.31,200.6,272.08,204.39Z" style="fill:#263238"></path><g style="opacity:0.7000000000000001"><path d="M308,212.18l-7.7,9.39s-8.58-4.47-16.29-8.94c-5.88-3.4-11.24-6.81-11.91-8.25-1.19-2.53,1.56-5.86,5-8a14.84,14.84,0,0,1,5.14-2.15C286.87,193.38,308,212.18,308,212.18Z" style="fill:#fff"></path></g><polygon points="306.29 209.99 295.61 220.38 300.86 222.27 309.02 211.9 306.29 209.99" style="fill:#263238"></polygon><polygon points="306.29 209.99 295.61 220.38 300.86 222.27 309.02 211.9 306.29 209.99" style="fill:#fff;opacity:0.5"></polygon><path d="M284,212.63c-5.88-3.4-11.24-6.81-11.91-8.25-1.19-2.53,1.56-5.86,5-8A24.9,24.9,0,0,1,284,212.63Z" style="opacity:0.1"></path><path d="M215.6,221.8s12.85,13.53,29.47,14.61S274.75,227,274.75,227s.51-19.16-10.63-23.78S215.6,221.8,215.6,221.8Z" style="fill:#263238"></path><path d="M215.6,221.8s12.85,13.53,29.47,14.61S274.75,227,274.75,227s.51-19.16-10.63-23.78S215.6,221.8,215.6,221.8Z" style="fill:#fff;opacity:0.5"></path><path d="M288.11,176.41c-3.23,3-9.09,3.79-12.1,5.35s-4,9.52-19.12,3S235,179.83,235,179.83s0-3.67,7.74-4.63c0,0-5.64-.41-7.93,2,0,0,2-8.72,9.78-9.45s9.71-11.94,16.28-16.35,20.39-4,26.48,3.42S292.32,172.47,288.11,176.41Z" style="fill:#263238"></path><path d="M243.41,164.15a9.49,9.49,0,0,1-2.41-.27.29.29,0,0,1,.15-.55c.32.09,7.81,2.09,13-6.27a15.61,15.61,0,0,1,14.57-7.57.29.29,0,0,1,.24.33.28.28,0,0,1-.32.25,15,15,0,0,0-14,7.3C251,163.16,246.26,164.15,243.41,164.15Z" style="fill:#263238"></path><path d="M285.34,180.15a.29.29,0,0,1-.09-.57c.37-.11,8.88-2.91,6.39-15.38-2.31-11.55-14.86-13.5-15-13.52a.29.29,0,0,1-.25-.33.28.28,0,0,1,.33-.24c.13,0,13.08,2,15.47,14,2.59,13-6.69,16-6.78,16Z" style="fill:#263238"></path><path d="M199.74,291.91a34.23,34.23,0,0,0,32,6.69c19.25-5.54-1.84-29.28-1.84-29.28S215.19,285.23,199.74,291.91Z" style="fill:#263238"></path><path d="M199.74,291.91a34.23,34.23,0,0,0,32,6.69c19.25-5.54-1.84-29.28-1.84-29.28S215.19,285.23,199.74,291.91Z" style="opacity:0.30000000000000004"></path><path d="M155.38,367.44l3.07,4.45c5.94-4.82,45.4-30.27,66.81-41.83.56-.3,1.34-.68,2.18-1.16h0c1.87-1,4.08-2.55,5.2-4.61,9.73-17.81,25-56.07,29-66.18l1-2.5-17.79-5a7.8,7.8,0,0,0-2.41,1.51C237.69,256,226.83,269.55,217,315a2.8,2.8,0,0,1-1.35,1.6,3.18,3.18,0,0,1-.71.3C185.83,328.37,155.38,367.44,155.38,367.44Z" style="fill:#e4897b"></path><path d="M146.37,366.9l.3,1.47,1.9,0-1.21,5.33,2.51,12.36s2.38,1.57,2.76-4.64a3.76,3.76,0,0,1,.15-.9c.83-3.44,4.89-8.92,4.89-8.92l-1.37-6.78a8.73,8.73,0,0,0-1.09-.36C153.56,364.06,150.17,363.42,146.37,366.9Z" style="fill:#263238"></path><path d="M155.21,364.5h0c1.19.69-2.37,5.66-3.26,8.94-.78,2.94-.76,6.05.86,7.11.83-3.44,6.25-9.68,6.25-9.68l-1.1-5.46S155.91,364.69,155.21,364.5Z" style="fill:#e4897b"></path><path d="M215.6,316.6a96,96,0,0,0,11.84,12.3h0c1.87-1,4.08-2.55,5.2-4.61,9.73-17.81,25-56.07,29-66.18l-19.22-6C237.69,256,226.83,269.55,217,315A2.8,2.8,0,0,1,215.6,316.6Z" style="opacity:0.2"></path><path d="M283.74,195.76s5.15,3.25-18.58,48.53l-33.14-11c5-13.31,7.94-21.59,10.72-51.42a101.19,101.19,0,0,1,14.58,2.81,111.47,111.47,0,0,1,15.05,5A86,86,0,0,1,283.74,195.76Z" style="fill:#8BBEB2"></path><g style="opacity:0.30000000000000004"><path d="M283.74,195.76s5.15,3.25-18.58,48.53l-33.14-11c5-13.31,7.94-21.59,10.72-51.42a101.19,101.19,0,0,1,14.58,2.81,111.47,111.47,0,0,1,15.05,5A86,86,0,0,1,283.74,195.76Z"></path></g><path d="M276.19,190.87c3,5.68,1.25,12.74,1.25,12.74C265.78,206.35,250,195.7,250,195.7l3.78-13.1A34.45,34.45,0,0,1,276.19,190.87Z" style="fill:#e4897b"></path><path d="M255,183s-1.19,19.91-4.22,25.06-41,26.63-41,26.63l2.77-17.8,23.34-6.72,6.89-28.28Z" style="fill:#263238"></path><path d="M274.75,189.94s-.66,20.31-1.32,24.79S274.75,227,274.75,227A106.16,106.16,0,0,0,286,195.87Z" style="fill:#263238"></path><path d="M209.74,234.65s38-21.5,41-26.64S255,183,255,183l-12.23-1.12-2.69,11L237,205.41l-1.15,4.71-23.35,6.73Z" style="fill:#fff;opacity:0.7000000000000001"></path><path d="M274.75,189.94s-.66,20.31-1.32,24.79S274.75,227,274.75,227A106.16,106.16,0,0,0,286,195.87Z" style="fill:#fff;opacity:0.7000000000000001"></path><path d="M237,205.41c5.64-3,9.53-16.06,3.05-12.54Z" style="opacity:0.1"></path><path d="M250.75,208l-3.09-18.79,3.09-1.93-4.45-2.54s7.51-5.67,19.82-1.19,15,12.4,15,12.4l-2.92-.4,1.78,5.82-6.7,15.55s1.18-23.82-.93-27.27S261.12,184,258.83,184,256.18,197.64,250.75,208Z" style="fill:#263238"></path><path d="M250.75,208l-3.09-18.79,3.09-1.93-4.45-2.54s7.51-5.67,19.82-1.19,15,12.4,15,12.4l-2.92-.4,1.78,5.82-6.7,15.55s1.18-23.82-.93-27.27S261.12,184,258.83,184,256.18,197.64,250.75,208Z" style="fill:#fff;opacity:0.5"></path><path d="M232.17,231.14l-1.83,2.68c-.2.19,0,.52.38.64l34.1,11.37c.3.1.6,0,.68-.15l1.29-2.87c.09-.19-.11-.45-.44-.56l-33.56-11.18A.6.6,0,0,0,232.17,231.14Z" style="fill:#e0e0e0"></path><path d="M222.3,301.57c2.1,7.08,4.92,15.26,8.64,24.71q2,5.19,4.46,10.9c.95,32,28,74.86,28,74.86l5.35-1.41c-2.57-7.39-13.37-54.24-17.05-78.86-3.51-23.46-11.88-78.46-11.88-78.46l-21.1,5.55S212,266.91,222.3,301.57Z" style="fill:#e4897b"></path><path d="M261.25,420.52h1.51l.43-1.85,5,2.29,12.62.12s2-2-4-3.66a4.12,4.12,0,0,1-.85-.33c-3.19-1.53-7.7-6.65-7.7-6.65l-6.92-.07a8.83,8.83,0,0,0-.58,1C260,412.89,258.65,416.07,261.25,420.52Z" style="fill:#263238"></path><path d="M260.75,411.37v0c.93-1,5,3.5,8.07,5.05,2.71,1.38,5.76,2,7.13.65-3.19-1.53-8.16-8.14-8.16-8.14l-5.57,0S261.08,410.73,260.75,411.37Z" style="fill:#e4897b"></path><path d="M267.3,171.52c-1.59,4.95-5.24,13.62-10,14.87,0,0-1.28,5.21,7,9.79,9.13,5,6.86-2.12,6.86-2.12-4.32-3.94-2.15-7.57.63-10.56Z" style="fill:#e4897b"></path><path d="M269.13,176.41l2.67,7.09a16.9,16.9,0,0,0-1.79,2.22c-1.75-1.32-3.21-4.85-2.31-7A7.37,7.37,0,0,1,269.13,176.41Z" style="opacity:0.2"></path><path d="M186.06,215.48l-10.44-1.14,5.51,8.2s6.22-.55,7.8-4.27Z" style="fill:#e4897b"></path><polygon points="168.68 218.66 173.67 225.27 181.13 222.54 175.62 214.34 168.68 218.66" style="fill:#e4897b"></polygon><path d="M238.25,197.93c-7.29,2.19-19,5.65-26.11,8a41.23,41.23,0,0,0-7.45,3.56c-4.26,2.41-14.47,8.71-18.8,11.34l-3.37-4.28c3.59-3.54,7.29-6.89,11.2-10.07,4.38-3.49,8.8-7.1,13.95-9.51,4.32-1.9,8.78-3.63,13.23-5.18,4.75-1.67,9.49-3.15,14.39-4.46l3,10.6Z" style="fill:#dc897c"></path><path d="M243.6,181.93c-3.57-.82-30.87,11.75-30.87,11.75l2.7,11.84s27.8-5.16,30-9.36C247.78,191.78,247.67,182.85,243.6,181.93Z" style="fill:#263238"></path><g style="opacity:0.7000000000000001"><path d="M243.6,181.93c-3.57-.82-30.87,11.75-30.87,11.75l2.7,11.84s27.8-5.16,30-9.36C247.78,191.78,247.67,182.85,243.6,181.93Z" style="fill:#fff"></path></g><polygon points="218.2 205.52 216.54 190.72 211.83 193.7 215.01 206.51 218.2 205.52" style="fill:#263238"></polygon><polygon points="218.2 205.52 216.54 190.72 211.83 193.7 215.01 206.51 218.2 205.52" style="fill:#fff;opacity:0.5"></polygon><path d="M265.5,245.68l-14.75,48.7.26,16.88-22.15-3.43s-3.43-1.32-10-25.85c0,0-10.4,8.61-19.1,9.93l-4.22-7.12s14.09,5.37,20.15-7.29c0,0-5.75-30.39,14.67-43.68Z" style="fill:#263238"></path><path d="M250.22,293.72a142,142,0,0,0-2.37-26.31S253.78,274.14,250.22,293.72Z" style="opacity:0.2"></path><path d="M263.21,162.11c-.66,8.58-1.12,12.19,2.48,17.36,5.43,7.79,15.9,7.26,19.07-.82,2.84-7.28,3.45-20.09-4.24-25.05A11,11,0,0,0,263.21,162.11Z" style="fill:#e4897b"></path><path d="M271.82,158.1c-6.07,4.6,1.39,13.78-7.77,10.9s-1.87-14.94,4.42-16.43S271.82,158.1,271.82,158.1Z" style="fill:#263238"></path><path d="M275.78,167c-.08.72.21,1.37.66,1.46s.89-.43,1-1.14-.21-1.37-.66-1.46S275.87,166.23,275.78,167Z" style="fill:#263238"></path><path d="M284.26,168.71c-.08.71.21,1.37.66,1.45s.89-.42,1-1.14-.21-1.37-.66-1.46S284.35,168,284.26,168.71Z" style="fill:#263238"></path><path d="M285,167.56l1.72-.18S285.74,168.57,285,167.56Z" style="fill:#263238"></path><path d="M281.75,169.43a21.11,21.11,0,0,0,1.91,5,2.88,2.88,0,0,1-2.52,0Z" style="fill:#de5753"></path><path d="M276.85,176.39a7.27,7.27,0,0,0,1.14.32.19.19,0,0,0,.23-.17.22.22,0,0,0-.18-.25,6,6,0,0,1-4.19-3.08.2.2,0,0,0-.27-.11.21.21,0,0,0-.09.28A6.28,6.28,0,0,0,276.85,176.39Z" style="fill:#263238"></path><path d="M274.45,162.61a.4.4,0,0,0,.32,0,3.08,3.08,0,0,1,2.92-.31.37.37,0,0,0,.53-.2.45.45,0,0,0-.22-.57,3.85,3.85,0,0,0-3.69.34.44.44,0,0,0-.11.59A.46.46,0,0,0,274.45,162.61Z" style="fill:#263238"></path><path d="M287.21,165.24a.39.39,0,0,0,.3,0,.43.43,0,0,0,.17-.57,4.4,4.4,0,0,0-3.05-2.47.38.38,0,0,0-.44.36.45.45,0,0,0,.37.48,3.52,3.52,0,0,1,2.39,2A.47.47,0,0,0,287.21,165.24Z" style="fill:#263238"></path><path d="M276.56,165.81l1.71-.18S277.26,166.82,276.56,165.81Z" style="fill:#263238"></path><path d="M276.2,154.42s-4.19,9.2-11,9.09,1.46-10.23,1.46-10.23,2.74-4.85,11.39-2.53,16.25,13.79,10.08,25.66a14.43,14.43,0,0,0,.59-7.92C287.68,164.66,284.94,167,276.2,154.42Z" style="fill:#263238"></path><path d="M260.3,169.77a5.9,5.9,0,0,0,2.65,4c1.77,1,3.18-.94,3.13-3.29,0-2.11-1-5.18-3-5.21S259.85,167.6,260.3,169.77Z" style="fill:#e4897b"></path><path d="M235.43,236.39l-.9-.3c-.18-.06-.29-.2-.24-.31l1.71-3.71c.05-.11.24-.15.42-.09l.89.3c.18.06.29.2.24.31l-1.71,3.71C235.79,236.41,235.61,236.45,235.43,236.39Z" style="fill:#263238"></path><path d="M262.19,245.31l-.9-.3c-.18-.06-.28-.2-.23-.31l1.7-3.71c.05-.11.24-.15.42-.09l.9.3c.18.06.28.2.23.3l-1.7,3.72C262.56,245.33,262.37,245.37,262.19,245.31Z" style="fill:#263238"></path><path d="M248.81,240.85l-.9-.3c-.18-.06-.28-.2-.23-.31l1.7-3.71c.05-.11.24-.15.42-.09l.9.3c.18.06.28.2.23.31l-1.7,3.71C249.18,240.87,249,240.91,248.81,240.85Z" style="fill:#263238"></path></g></svg>
