<svg xmlns="http://www.w3.org/2000/svg" viewBox="0 0 500 500"><g id="freepik--Plant--inject-135"><path d="M399.63,398a25.91,25.91,0,0,1,6.9-17.12C408.61,389.44,399.63,398,399.63,398Z" style="fill:#455a64"></path><path d="M409.64,393.13a25.89,25.89,0,0,1,18.46-.51C421.05,398,409.64,393.13,409.64,393.13Z" style="fill:#455a64"></path><path d="M410.78,387.56a20.43,20.43,0,0,1,2.51-14.35C416.31,379.51,410.78,387.56,410.78,387.56Z" style="fill:#455a64"></path><path d="M372.07,367.46c14.63,3.9,22.48,16.62,22.48,16.62C382.05,384.09,372.07,367.46,372.07,367.46Z" style="fill:#455a64"></path><path d="M395.44,373.46c-.76-15.77,14.66-33.62,14.66-33.62-2.33,19.58-14.66,33.62-14.66,33.62" style="fill:#455a64"></path><path d="M395.37,328.54a42.26,42.26,0,0,1-5.55,22.59C387.65,341,395.37,328.54,395.37,328.54Z" style="fill:#455a64"></path><path d="M389.42,360.59c-11.53-1.24-17.8-12.71-17.8-12.71C385.56,351.78,389.42,360.59,389.42,360.59Z" style="fill:#455a64"></path><path d="M364.55,408.81a25.88,25.88,0,0,1,18.13-3.49C376.59,411.73,364.55,408.81,364.55,408.81Z" style="fill:#455a64"></path><path d="M394.43,414a16.93,16.93,0,0,1-7.75,8.73C387.18,417.39,394.43,414,394.43,414Z" style="fill:#455a64"></path><path d="M393,412.29a20.52,20.52,0,0,1-13.79,2.46C383.6,410.12,393,412.29,393,412.29Z" style="fill:#455a64"></path><path d="M398.85,433.52a.75.75,0,0,1,0-.24c0-.18,0-.41,0-.68,0-.65,0-1.53,0-2.65s0-2.55,0-4.18,0-3.48-.12-5.53c-.1-4.1-.39-9-.81-14.38s-1.12-11.33-2-17.52c-1.83-12.39-4.32-23.46-6.32-31.42-1-4-1.86-7.18-2.48-9.39l-.69-2.55c-.06-.27-.12-.49-.16-.67s-.05-.23,0-.23,0,.07.09.21.13.39.21.66c.2.61.46,1.46.79,2.52.68,2.19,1.58,5.39,2.64,9.36a294.12,294.12,0,0,1,6.47,31.43c.9,6.2,1.54,12.14,2,17.56s.65,10.3.7,14.41c.06,2,0,3.91,0,5.54s0,3-.07,4.19-.06,2-.09,2.64q0,.4,0,.69Z" style="fill:#263238"></path><path d="M377.68,400.13c.08-.12,4.74,2.94,10.41,6.82s10.2,7.14,10.12,7.25-4.74-2.93-10.41-6.82S377.6,400.25,377.68,400.13Z" style="fill:#263238"></path><path d="M398.21,401.81a4.22,4.22,0,0,1,.71-.78l2.08-2,6.93-6.5,6.93-6.5,2.1-2a4.26,4.26,0,0,1,.82-.68,4.4,4.4,0,0,1-.67.82c-.46.51-1.14,1.22-2,2.09-1.71,1.74-4.12,4.08-6.84,6.62s-5.2,4.79-7,6.39c-.92.8-1.67,1.44-2.19,1.88A4.35,4.35,0,0,1,398.21,401.81Z" style="fill:#263238"></path><path d="M362.87,392.66s11.92-.23,17,9.15A21.46,21.46,0,0,1,362.87,392.66Z" style="fill:#455a64"></path><path d="M379.15,387.87s9.71,6.93,8.16,17.46A21.47,21.47,0,0,1,379.15,387.87Z" style="fill:#455a64"></path><path d="M430.26,370.82s-3.83,13.34-16,15.74A25,25,0,0,1,430.26,370.82Z" style="fill:#455a64"></path><path d="M373.86,321.22s15.2,9.92,13.52,26A32.68,32.68,0,0,1,373.86,321.22Z" style="fill:#455a64"></path><path d="M424.46,409.44a5.82,5.82,0,0,1-1,.79c-.66.48-1.6,1.19-2.73,2.09a66.76,66.76,0,0,0-15.05,16.75c-.77,1.23-1.37,2.23-1.78,2.94a5.28,5.28,0,0,1-.68,1.06,6.12,6.12,0,0,1,.51-1.16c.34-.73.9-1.77,1.64-3A58.23,58.23,0,0,1,420.52,412c1.17-.87,2.15-1.54,2.84-2A6.25,6.25,0,0,1,424.46,409.44Z" style="fill:#263238"></path><path d="M411.23,419.35a25.92,25.92,0,0,1,3.49-18.13C416.36,412.52,411.23,419.35,411.23,419.35Z" style="fill:#455a64"></path><path d="M421.46,413.77a18.87,18.87,0,0,1,13.28-2.06C427.39,415.61,421.46,413.77,421.46,413.77Z" style="fill:#455a64"></path><polygon points="376.68 434.76 382.38 472.25 415.52 472.25 423.22 435.3 376.68 434.76" style="fill:#8BBEB2"></polygon><path d="M372.87,427.34v7a2.76,2.76,0,0,0,2.76,2.76h48a2.76,2.76,0,0,0,2.76-2.76v-7Z" style="fill:#8BBEB2"></path><path d="M422.25,437.25c0,.12-10.5.23-23.44.23s-23.45-.11-23.45-.23,10.5-.23,23.45-.23S422.25,437.12,422.25,437.25Z" style="fill:#263238"></path></g><g id="freepik--Floor--inject-135"><path d="M448.61,472.13c0,.15-89.52.27-199.93.27s-200-.12-200-.27,89.5-.26,200-.26S448.61,472,448.61,472.13Z" style="fill:#263238"></path></g><g id="freepik--Character--inject-135"><path d="M165.53,189.82l-5.72-.54s-2.66-4.12-4-5.18-7.43-3.73-7.75-3.76-5.65-6.47-7.08-5.82-2.16,2-1.19,3.87,5.39,4.94,4.66,5.86a6.86,6.86,0,0,1-2.16,1.57s-1-2.18-2.51-2.57-2.56,1.24-2.56,1.24l.24,1-1.56-.79s-2.59-4.25-4.56-3.67a8.35,8.35,0,0,0-2.69-2.09,1.77,1.77,0,0,0-2.41,1.5h0l6.46,9.45,12.77,8.05s5.08.49,6.4.7,7.64,2.41,10.2,2.55,5.62.56,5.62.56Z" style="fill:#ba7f72"></path><path d="M150.92,190.42a6.2,6.2,0,0,1,1.8-.7,8.88,8.88,0,0,1,4.7-.26,5.64,5.64,0,0,1,2.33,1.26,8.45,8.45,0,0,1,1.39,1.61,5.82,5.82,0,0,1,.93,1.7,9.29,9.29,0,0,1-1.23-1.48,6.85,6.85,0,0,0-3.55-2.59,10,10,0,0,0-4.48.11A8.24,8.24,0,0,1,150.92,190.42Z" style="fill:#8b5d54"></path><path d="M141.94,185.21c.05-.05.58.46,1.15,1.48s1.13,2.53,2,4a7.77,7.77,0,0,0,1.72,1.63,16.74,16.74,0,0,1,1.58,1.27,2.9,2.9,0,0,1,1,1.57,15.7,15.7,0,0,0-1.29-1.29c-.43-.36-1-.73-1.61-1.16a7.43,7.43,0,0,1-1.86-1.72,14.08,14.08,0,0,1-1.1-2.26c-.29-.69-.55-1.32-.79-1.83C142.29,185.83,141.88,185.26,141.94,185.21Z" style="fill:#8b5d54"></path><path d="M141.09,193.52a14.71,14.71,0,0,1-2.15-3.8,14.38,14.38,0,0,1-1.42-4.14,24.73,24.73,0,0,1,1.89,3.93A25.21,25.21,0,0,1,141.09,193.52Z" style="fill:#8b5d54"></path><path d="M138.27,190.05a8.15,8.15,0,0,1-1.48-2.68,10.23,10.23,0,0,1-1-2.88,8,8,0,0,1,1.47,2.67A10.76,10.76,0,0,1,138.27,190.05Z" style="fill:#8b5d54"></path><path d="M134,189.34a22.92,22.92,0,0,1-2.85-4,12.27,12.27,0,0,1-1-1.69,2.4,2.4,0,0,1-.2-.91,1.89,1.89,0,0,1,.24-.77c.45-.86,1.13-1,1.13-.94a3,3,0,0,0-.8,1.1c-.47.77.31,1.79,1,2.93A23.71,23.71,0,0,1,134,189.34Z" style="fill:#8b5d54"></path><path d="M144.42,184.55c-.11-.09.29-.72,1.06-1.2s1.5-.57,1.53-.43-.57.43-1.26.87S144.53,184.65,144.42,184.55Z" style="fill:#8b5d54"></path><path d="M272.22,434.58l-1.12,24.06s24.09,9.23,24.32,13.69l-46.75-.49.21-37.57Z" style="fill:#263238"></path><path d="M256.67,456.47a1.89,1.89,0,0,0-1.34,2.16,1.83,1.83,0,0,0,2.13,1.35,2,2,0,0,0,1.41-2.3,1.9,1.9,0,0,0-2.37-1.16" style="fill:#e0e0e0"></path><path d="M248.67,471.84l.17-3.79,44.76,1.89s2.07.93,1.82,2.39Z" style="fill:#455a64"></path><path d="M271.86,458.42c0,.22-1.15.31-2.28,1s-1.74,1.67-1.95,1.58.15-1.41,1.53-2.26S271.91,458.21,271.86,458.42Z" style="fill:#fff"></path><path d="M276.74,460.49c.05.23-.94.6-1.72,1.56s-1,2-1.25,2-.36-1.3.64-2.47S276.74,460.28,276.74,460.49Z" style="fill:#fff"></path><path d="M279.47,466.39c-.21.05-.52-1.09.08-2.34s1.68-1.73,1.77-1.54-.57.85-1.05,1.88S279.69,466.37,279.47,466.39Z" style="fill:#fff"></path><path d="M271.51,452.9c-.1.21-1.14-.12-2.43,0s-2.3.47-2.42.27.86-1,2.38-1.07S271.62,452.72,271.51,452.9Z" style="fill:#fff"></path><path d="M250.39,432.21l-2.53,29,4.62,23.55a3,3,0,0,1-2.55,3.53h0a3,3,0,0,1-2.57-.93c-4.17-4.55-19-21.53-19-23.09,0-2.47.5-31.17.5-31.17Z" style="fill:#263238"></path><path d="M249.93,488.33,228.38,462l-.08,1.23a4.73,4.73,0,0,0,.88,3c1.71,2.29,6.56,8.51,18.09,21.19a3,3,0,0,0,2.66.94Z" style="fill:#455a64"></path><g style="opacity:0.6000000000000001"><path d="M235,453a1.79,1.79,0,0,1,.34,2.38,1.73,1.73,0,0,1-2.36.36,1.9,1.9,0,0,1-.35-2.52,1.8,1.8,0,0,1,2.5-.11" style="fill:#fff"></path></g><path d="M244.09,475.2c.16.09.92-1.39,2.7-2.1s3.34-.25,3.39-.43-.32-.32-1-.46a4.61,4.61,0,0,0-2.63.3,4.69,4.69,0,0,0-2.08,1.65C244.1,474.74,244,475.17,244.09,475.2Z" style="fill:#fff"></path><path d="M245.92,479.22c.13.14,1.12-.75,2.65-1.08s2.81,0,2.87-.19-1.27-.85-3-.44S245.77,479.14,245.92,479.22Z" style="fill:#fff"></path><path d="M240.56,470c.13.14,1.65-1.23,4-2s4.37-.53,4.38-.73-2.07-.69-4.57.12S240.42,469.86,240.56,470Z" style="fill:#fff"></path><path d="M240.59,461.06c.07.18,1.72-.39,3.81-.33s3.72.67,3.8.49-1.53-1.09-3.78-1.13S240.51,460.92,240.59,461.06Z" style="fill:#fff"></path><path d="M241.12,452.52c.08.17,1.75-.69,4-.45s3.68,1.37,3.79,1.22-.24-.45-.89-.88a6.47,6.47,0,0,0-5.82-.57C241.44,452.13,241.08,452.45,241.12,452.52Z" style="fill:#fff"></path><path d="M245.13,450.44a2.42,2.42,0,0,0,.11-1.1,7.65,7.65,0,0,0-.69-2.93,3.38,3.38,0,0,0-1.35-1.72,1.21,1.21,0,0,0-1.37.18,2,2,0,0,0-.54,1.29,4.21,4.21,0,0,0,3.44,4.13,4.86,4.86,0,0,0,5-2.25,1.7,1.7,0,0,0,.18-1.4,1.17,1.17,0,0,0-1.19-.7,4.15,4.15,0,0,0-2,.87,8.8,8.8,0,0,0-2.13,2.13,2.69,2.69,0,0,0-.51,1,13.66,13.66,0,0,1,2.9-2.73,3.92,3.92,0,0,1,1.74-.72.62.62,0,0,1,.65.38,1.16,1.16,0,0,1-.16.91,4.38,4.38,0,0,1-4.33,1.9,3.65,3.65,0,0,1-3-3.46,1.41,1.41,0,0,1,.34-.92.67.67,0,0,1,.75-.11,3.12,3.12,0,0,1,1.17,1.43A11.32,11.32,0,0,1,245.13,450.44Z" style="fill:#fff"></path><path d="M220.71,246.15s-.34,38.7,1.16,47.38c1.57,9.12,1.54,62.3,1.54,62.3s.81,54.84,2.17,71.2,2.72,29.36,2.72,29.36l24.18-.73L259,350l10.22-64.75L266.7,248Z" style="fill:#455a64"></path><path d="M254.53,247.5l45.18,1.18s.46,31.78-2.69,47.8-13.13,73.69-13.13,73.69l-11.83,86.22L248,456.05v-119l3.81-54.87,2.74-34.69" style="fill:#455a64"></path><path d="M266.65,286.15v0s0,0,0,.07a2.83,2.83,0,0,1,0,.33c0,.29,0,.72,0,1.29-.07,1.13-.19,2.8-.38,4.94-.37,4.3-1,10.5-1.76,18.16l-1.31,12.52c-.24,2.26-.49,4.58-.74,7s-.56,4.86-.72,7.4c-.77,10.15-1.62,21.31-2.51,33-1.83,23.42-3.48,44.62-4.68,60-.63,7.65-1.13,13.86-1.48,18.17-.19,2.13-.33,3.79-.43,4.94,0,.55-.1,1-.13,1.29a2.55,2.55,0,0,1-.06.43s0-.15,0-.44,0-.74.07-1.29c.08-1.15.19-2.82.34-4.94.31-4.32.76-10.53,1.31-18.19,1.16-15.38,2.76-36.59,4.53-60,.9-11.71,1.77-22.87,2.55-33,.17-2.54.48-5,.74-7.41s.52-4.72.77-7c.49-4.5.95-8.69,1.37-12.52.81-7.64,1.47-13.83,1.93-18.13.2-2.13.36-3.78.47-4.94l.1-1.28C266.69,286.23,266.68,286.06,266.65,286.15Z" style="fill:#263238"></path><path d="M242.87,253a3.62,3.62,0,0,1,0,1.06,15,15,0,0,1-.41,2.87A17.71,17.71,0,0,1,229.73,270a15.31,15.31,0,0,1-2.86.49,3.71,3.71,0,0,1-1.07,0c0-.1,1.52-.14,3.82-.84a18.31,18.31,0,0,0,12.52-12.87C242.77,254.48,242.77,253,242.87,253Z" style="fill:#263238"></path><path d="M297.57,273.59a2,2,0,0,1-.71-.24,11.79,11.79,0,0,1-1.78-1,16.85,16.85,0,0,1-7.35-10.79,11.55,11.55,0,0,1-.24-2,2.42,2.42,0,0,1,0-.74c.1,0,.16,1,.57,2.67a18.59,18.59,0,0,0,7.2,10.57C296.65,273.06,297.61,273.51,297.57,273.59Z" style="fill:#263238"></path><path d="M272,252a5.68,5.68,0,0,1,0,1.19c-.08.87-.17,1.94-.29,3.22-.27,2.71-.67,6.45-1.15,10.58s-.93,7.76-1.29,10.45l0,.15h-.15a8.81,8.81,0,0,1-3.33-.35,3.18,3.18,0,0,1-1.12-.49s.42.12,1.17.29a9.61,9.61,0,0,0,3.25.18l-.17.16c.27-2.69.67-6.39,1.14-10.46s.94-7.87,1.3-10.57c.18-1.26.34-2.33.46-3.19A5.13,5.13,0,0,1,272,252Z" style="fill:#263238"></path><path d="M266.08,253.53s.11-.17.43-.22a1.35,1.35,0,0,1,1.24.5,1.83,1.83,0,0,1,.18,2,2.22,2.22,0,0,1-2.11,1.2,2.18,2.18,0,0,1-1.84-1.57,2,2,0,0,1,.49-1.92,2,2,0,0,1,1.17-.6c.31,0,.48,0,.47.06a2.67,2.67,0,0,0-1.37.79,1.62,1.62,0,0,0-.3,1.53,1.71,1.71,0,0,0,1.43,1.19,1.75,1.75,0,0,0,1.63-.9,1.48,1.48,0,0,0,0-1.53,1.22,1.22,0,0,0-.93-.52C266.25,253.5,266.1,253.57,266.08,253.53Z" style="fill:#263238"></path><path d="M279.57,91.36a86.58,86.58,0,0,0,4.79-14.23,30.41,30.41,0,0,0-.15-14.87c-.22-.73-2.13-5.65-2.89-5.63-.55,0,.53,4.56.23,5-2.92,4.29-4,9.61-3.94,14.79a67.93,67.93,0,0,0,2,14.94" style="fill:#263238"></path><path d="M249.6,117.1c.21-3.53.37-6.32.34-6.32s-12-2.07-12-14.13c0-5.82,1-17.81,2.09-28.65a22.47,22.47,0,0,1,22.73-20.3l1.16,0c12.54.94,18.74,12.1,17.46,24.6l-3.09,43.87-9.22,9.55a11.35,11.35,0,0,1-19.49-8.64Z" style="fill:#ba7f72"></path><path d="M249.94,110.78a29.1,29.1,0,0,0,15.77-4.39s-4,8.71-16,7.43Z" style="fill:#8b5d54"></path><path d="M242.9,78a1.74,1.74,0,0,0,1.64,1.77,1.66,1.66,0,0,0,1.8-1.53,1.72,1.72,0,0,0-1.63-1.76A1.65,1.65,0,0,0,242.9,78Z" style="fill:#263238"></path><path d="M242.55,73c.21.23,1.53-.72,3.38-.68s3.2,1,3.4.76-.11-.51-.69-1a4.79,4.79,0,0,0-2.72-.89,4.53,4.53,0,0,0-2.7.83C242.65,72.53,242.45,72.94,242.55,73Z" style="fill:#263238"></path><path d="M260.15,78.63a1.72,1.72,0,0,0,1.63,1.77,1.65,1.65,0,0,0,1.8-1.53A1.71,1.71,0,0,0,262,77.11,1.64,1.64,0,0,0,260.15,78.63Z" style="fill:#263238"></path><path d="M260.69,74.08c.21.23,1.53-.71,3.38-.68s3.19,1,3.4.76-.11-.51-.7-1a4.66,4.66,0,0,0-2.71-.88,4.44,4.44,0,0,0-2.7.82C260.78,73.58,260.58,74,260.69,74.08Z" style="fill:#263238"></path><path d="M253.81,88.21a12.74,12.74,0,0,0-3-.59c-.47-.06-.92-.16-1-.48a2.53,2.53,0,0,1,.34-1.4c.47-1.14.95-2.33,1.46-3.58,2-5.1,3.5-9.29,3.3-9.37s-2,4-4,9.08c-.48,1.26-1,2.46-1.39,3.61a2.72,2.72,0,0,0-.28,1.85,1.16,1.16,0,0,0,.77.7,3.16,3.16,0,0,0,.8.13A11.76,11.76,0,0,0,253.81,88.21Z" style="fill:#263238"></path><path d="M259.93,69.82c.26.47,2.05,0,4.24-.12s4,.25,4.23-.24c.1-.23-.28-.65-1-1a7.06,7.06,0,0,0-3.26-.6,6.91,6.91,0,0,0-3.19.88C260.16,69.15,259.82,69.6,259.93,69.82Z" style="fill:#263238"></path><path d="M243.2,66.57c.32.42,1.61,0,3.14,0s2.83.33,3.14-.11c.13-.21-.07-.63-.63-1a4.55,4.55,0,0,0-5,.07C243.25,65.93,243.06,66.36,243.2,66.57Z" style="fill:#263238"></path><path d="M280.27,81.24c.21-.09,8.32-2.32,7.93,5.92s-8.59,6.14-8.59,5.9S280.27,81.24,280.27,81.24Z" style="fill:#ba7f72"></path><path d="M282.28,90.06s.13.11.37.23a1.43,1.43,0,0,0,1.07.08c.89-.28,1.69-1.63,1.8-3.11a4.78,4.78,0,0,0-.3-2.07,1.69,1.69,0,0,0-1-1.16.75.75,0,0,0-.87.35c-.12.23-.07.4-.12.41s-.17-.15-.08-.49a.9.9,0,0,1,.34-.5,1.09,1.09,0,0,1,.81-.17A2,2,0,0,1,285.71,85a4.88,4.88,0,0,1,.38,2.32c-.13,1.66-1,3.17-2.26,3.46a1.56,1.56,0,0,1-1.3-.28C282.28,90.26,282.25,90.08,282.28,90.06Z" style="fill:#8b5d54"></path><path d="M246.16,54.66c-1.29-.82,3-4.9,6.31-6.2,5.08-2,12.72-2.92,17.21-1.36,5.4,1.87,9.81,4.86,12.29,10a32.52,32.52,0,0,1,2.69,16.74,9.83,9.83,0,0,1-1.45,5c-1.25,1.75-3.52,2.77-3.57,5.29a3.48,3.48,0,0,1-1,2.47c-1.6,1.51-3.35-.1-4.12-1.66-1.62-3.32-1.6-7.19-1.55-10.89a24,24,0,0,1,1-7.8c.49-1.35,1.21-2.61,1.61-4a4.9,4.9,0,0,0-.35-4.14,5,5,0,0,0-.63-.71,8.57,8.57,0,0,0-8.42-2.11c-4.73,1.37-12.79,3.37-14.77,1.68-2.85-2.43-3.48-3.95-3.48-3.95Z" style="fill:#263238"></path><path d="M251,93.59c-.06.13.27.44,1,.66a4.92,4.92,0,0,0,5-1.6c.44-.56.53-1,.41-1.09s-1.29,1-3,1.54S251.16,93.29,251,93.59Z" style="fill:#263238"></path><path d="M246.54,117.68l1.08-3.92a2.08,2.08,0,0,1,2.11-1.53c1.47.07,3.5.15,4.36.13,2.84-.07,14.46-2.44,16.79-2.84,3.16-.54,8.23-3.75,8.55-2.54s-.18,7-.18,7v2l7.33,7.58,8.86,24.14-5.32,80.61L289,249.09s-1.6,7-4.18,7.64c-11.36,3-55.45-3.76-55.45-3.76l9.56-36-3.83-46.16,3.5-43.53,5.69-8.43Z" style="fill:#263238"></path><path d="M278.47,116.5a6.65,6.65,0,0,1-1.2.37c-.78.21-1.9.55-3.26,1-2.74.9-6.39,2.54-10.62,3.92a25.6,25.6,0,0,1-11.24,1.33,14.37,14.37,0,0,1-3.34-.86,5.53,5.53,0,0,1-1.13-.57,23.64,23.64,0,0,0,4.52,1.07,27.35,27.35,0,0,0,11-1.46c4.17-1.37,7.86-3,10.65-3.78a31.82,31.82,0,0,1,3.33-.87A5.77,5.77,0,0,1,278.47,116.5Z" style="fill:#455a64"></path><path d="M279.72,111.3l5.4,7.31s21.69,7.45,23,8.51-6.24,83.63-6.24,83.63h0s1.28,16.11,1.28,16.91,5.54,55.2,5.54,55.2-11.41,1.82-15.66-2.84c-5.79-6.35-5.6-24.27-5.6-30.13s1.16-61.42,1.16-61.42l-1-27.52a151.31,151.31,0,0,0-6.2-37.72L279.25,116Z" style="fill:#8BBEB2"></path><path d="M283.91,117.21a3.31,3.31,0,0,1,.35.66c.22.43.52,1.08.9,1.92.75,1.68,1.79,4.14,3,7.21s2.53,6.77,3.82,10.94c.62,2.09,1.24,4.29,1.7,6.63a42.07,42.07,0,0,1,.61,7.35,117.94,117.94,0,0,1-1,14.15c-.52,4.33-1.08,8.21-1.53,11.48s-.79,5.9-1,7.73l-.24,2.1a5.79,5.79,0,0,1-.11.73,3.18,3.18,0,0,1,0-.74c0-.48.06-1.2.14-2.11.15-1.84.43-4.49.84-7.76s.92-7.16,1.41-11.48a122.32,122.32,0,0,0,.92-14.1,42.57,42.57,0,0,0-.59-7.25c-.45-2.31-1.05-4.51-1.66-6.6-1.26-4.16-2.56-7.85-3.7-10.94s-2.14-5.56-2.83-7.26l-.8-2A3.26,3.26,0,0,1,283.91,117.21Z" style="fill:#263238"></path><path d="M298.91,173.92a7.71,7.71,0,0,1-5.85.64,22.33,22.33,0,0,1,2.94-.26A22.35,22.35,0,0,1,298.91,173.92Z" style="fill:#263238"></path><path d="M310.67,234.86s18.09-12.23,20.22-18.61,2.66-8.25,1.59-12-15.69-62-15.69-62-4.41-14.58-9.19-15.3c-1.31-.2-2.44,48.48-2.65,50.29s-1.2,10.24-1.2,10.24,4.52,14.37,4.52,15.17.27,6.91.27,6.91l-10.38,5.59s1.6,17.81,5.86,19.68S310.67,234.86,310.67,234.86Z" style="fill:#8BBEB2"></path><path d="M327.69,201a13,13,0,0,0-4.91-1.26,11.17,11.17,0,0,0-5.3,1.16,9.72,9.72,0,0,0-2.59,1.89,34.09,34.09,0,0,0-2.08,2.83,20,20,0,0,1-5.06,4.69,42.22,42.22,0,0,1-4.86,2.83c-1.43.71-2.6,1.25-3.43,1.58a6.8,6.8,0,0,1-1.3.49,7.61,7.61,0,0,1,1.22-.67c.8-.39,1.94-1,3.34-1.73a49,49,0,0,0,4.76-2.89,20.22,20.22,0,0,0,4.91-4.61,31.82,31.82,0,0,1,2.13-2.87,10.15,10.15,0,0,1,2.74-2,11.39,11.39,0,0,1,5.54-1.1,10.4,10.4,0,0,1,3.69.92,6.28,6.28,0,0,1,.91.49C327.6,200.88,327.7,201,327.69,201Z" style="fill:#263238"></path><path d="M323.88,194.49c0,.09-.92.08-2.35.36a13.88,13.88,0,0,0-5.2,2.14,14.09,14.09,0,0,0-3.91,4c-.79,1.23-1.12,2.08-1.2,2.05a6.34,6.34,0,0,1,.88-2.24,12.66,12.66,0,0,1,9.37-6.36A6.25,6.25,0,0,1,323.88,194.49Z" style="fill:#263238"></path><path d="M306.9,140.3a3.81,3.81,0,0,1,0,.74c0,.54,0,1.26,0,2.15,0,1.86-.1,4.55-.25,7.87-.31,6.64-.94,15.81-1.75,25.92s-1.64,19.27-2.28,25.89c-.33,3.26-.59,5.93-.78,7.83l-.24,2.13a4.89,4.89,0,0,1-.12.74,3.29,3.29,0,0,1,0-.75c0-.54.09-1.25.14-2.14.16-1.91.37-4.57.62-7.84l2.13-25.9c.81-10.11,1.49-19.27,1.9-25.9.2-3.32.33-6,.42-7.86,0-.89.06-1.6.08-2.14A3.52,3.52,0,0,1,306.9,140.3Z" style="fill:#263238"></path><g style="opacity:0.30000000000000004"><path d="M303.55,188.31c4.44-8.61,4.35-21.57,2.61-31.09-.75,9.6-1.77,23.76-2.61,31.09"></path></g><path d="M246.19,123.32l1.43-9.56-7.68,6.08-16.48,3.8c-5.83,1.34-8.11,3.87-10.86,9.18a43.3,43.3,0,0,0-4.55,15.54c-.47,6.52-5.11,45.55-5.11,45.55l-39.45-7.39-1.42,18.77s39,15.71,41.94,15.94a18.42,18.42,0,0,0,19.4-12V219.5c-.56,1.55-10.64,54.09-10.64,54.09s24,13.49,29.34-8.86,8.1-64.32,8.1-64.32l2.27-13.14S246.72,128.11,246.19,123.32Zm-23.06,36.91.27,1.43v47.07C223.39,204.89,223.26,177.16,223.13,160.23Z" style="fill:#8BBEB2"></path><path d="M223.32,157.85c.14,0,.28,13.8.3,30.82s-.07,30.83-.21,30.83-.28-13.8-.31-30.82S223.17,157.85,223.32,157.85Z" style="fill:#263238"></path><path d="M220.84,146.43a12.84,12.84,0,0,1-.77-2.71c-.39-1.69-.84-4.05-1.18-6.68s-.49-5-.53-6.77a12.84,12.84,0,0,1,.07-2.82,19.2,19.2,0,0,1,.29,2.8c.14,1.72.36,4.1.69,6.72s.72,5,1,6.68A19,19,0,0,1,220.84,146.43Z" style="fill:#263238"></path><polygon points="221.26 229.54 216.71 236.96 235.16 239.67 237.87 231.67 221.26 229.54" style="fill:#8BBEB2"></polygon><path d="M221.26,229.54a9.68,9.68,0,0,1,1.19.08l3.42.37,12,1.44.29,0-.09.28c-.84,2.47-1.74,5.17-2.69,8l-.07.2-.22,0-1.07-.15-17.37-2.62-.29,0,.15-.25,3.44-5.42.94-1.43a2.33,2.33,0,0,1,.34-.47,3.24,3.24,0,0,1-.29.57l-.87,1.51-3.23,5.44-.13-.29,17.38,2.48,1.08.16-.29.17c1-2.82,1.89-5.52,2.73-8l.19.32L226,230.28l-3.43-.51A9.41,9.41,0,0,1,221.26,229.54Z" style="fill:#263238"></path><g style="opacity:0.30000000000000004"><path d="M219.64,237.45a2.75,2.75,0,0,0,1.35,2.32,6.67,6.67,0,0,0,2.52.77c3.83.61,7.92.85,11.43-.8Z"></path></g><path d="M206.25,207.12c-.16,0-.41-3.08-1.34-6.76s-2.13-6.53-2-6.59a6.78,6.78,0,0,1,1,1.8,32.23,32.23,0,0,1,2.37,9.51A6.7,6.7,0,0,1,206.25,207.12Z" style="fill:#263238"></path><g style="opacity:0.30000000000000004"><path d="M223.72,209.51c-4.81-13.46-4.69-27.36-.4-41,.22,14.07,0,27,.24,41.09"></path></g><path d="M249.29,189a3.2,3.2,0,0,1-.21-.67c-.13-.5-.29-1.15-.5-2-.43-1.7-1-4.18-1.65-7.26-1.31-6.14-2.92-14.68-4.4-24.16s-2.49-18.11-2.87-24.4c-.06-1.57-.17-3-.15-4.24v-1.74c0-.54.06-1,.09-1.47s0-.83.1-1.17l.18-.84a2.84,2.84,0,0,1,.17-.68,3.63,3.63,0,0,1-.07.7l-.13.84c0,.33,0,.73,0,1.16s0,.93-.05,1.46,0,1.12.05,1.73c0,1.25.14,2.66.23,4.23.47,6.26,1.55,14.87,3,24.34s3,18,4.26,24.17c.61,3,1.12,5.51,1.48,7.29.17.82.3,1.48.4,2A4.61,4.61,0,0,1,249.29,189Z" style="fill:#263238"></path><g style="opacity:0.30000000000000004"><path d="M239.66,125.67a66.13,66.13,0,0,0-.95,26.84c1.39,8.91,2.32,18.74,7.73,25.85C244,161.6,240,143.47,239.66,125.67Z"></path></g><g style="opacity:0.30000000000000004"><path d="M310,229.33a26.23,26.23,0,0,0-2-8.55c-.75-1.8-1.95-3.69-3.86-4.07a5.4,5.4,0,0,0-4,1.14,6.66,6.66,0,0,0-2.56,2.88,3.54,3.54,0,0,0,.48,3.68l3.49,6.68a11,11,0,0,0,3.76,2.48,3.7,3.7,0,0,0,4.1-1.08A5,5,0,0,0,310,229.33Z"></path></g><polygon points="297.21 238.91 309.63 249.28 312.89 245.91 301.23 235.09 297.21 238.91" style="fill:#455a64"></polygon><polygon points="283.79 217.72 273 208.19 267.13 215.51 298.71 241.35 303.18 235.76 283.79 217.72" style="fill:#455a64"></polygon><polygon points="270.67 219.46 278.19 211.51 255.67 191.11 247.01 200.89 270.67 219.46" style="fill:#455a64"></polygon><path d="M278.14,211.44a30.37,30.37,0,0,1-3.73,4.33,30.75,30.75,0,0,1-4.11,4,33.52,33.52,0,0,1,3.73-4.33A32.2,32.2,0,0,1,278.14,211.44Z" style="fill:#263238"></path><path d="M303.18,235.76a12.17,12.17,0,0,1-2.08,2.92,16.43,16.43,0,0,1-2.39,2.67,10.15,10.15,0,0,1,2-3A13,13,0,0,1,303.18,235.76Z" style="fill:#263238"></path><path d="M270.7,216.86c-.09.11-4.47-3.26-9.79-7.53s-9.55-7.83-9.46-8,4.47,3.27,9.79,7.54S270.79,216.75,270.7,216.86Z" style="fill:#fff"></path><path d="M300.44,215.26h-4.71s-3.48-2.73-4.88-2.73a11,11,0,0,0-3.82,1.36l-7.38-.06,3.51,3.1L276,224s0,1.88.62,2.2a8.43,8.43,0,0,0,2.83,0l1.36.14s-1.67,2.27-.83,3.21,4,0,4,0,.35,2.72,1.19,3.14c0,0,1.05,3.35,3,3.67s8.85-2,8.85-2l4.19-1.26,3.14-5.13,3.76-1.68S311.78,217.57,300.44,215.26Z" style="fill:#ba7f72"></path><path d="M291.06,219a6.65,6.65,0,0,1-1.38,1.41,36.49,36.49,0,0,1-3.78,2.87,35.7,35.7,0,0,1-4.12,2.37,6.63,6.63,0,0,1-1.83.73c-.07-.14,2.6-1.49,5.66-3.53S291,218.84,291.06,219Z" style="fill:#8b5d54"></path><path d="M297.58,222.11a56.68,56.68,0,0,1-6.56,4.07,56,56,0,0,1-6.82,3.62,114.69,114.69,0,0,1,13.38-7.69Z" style="fill:#8b5d54"></path><path d="M300.7,226.22a9.47,9.47,0,0,1-1.92,1.48,38.14,38.14,0,0,1-5.12,2.83,37.26,37.26,0,0,1-5.48,2,9.4,9.4,0,0,1-2.38.5,13.26,13.26,0,0,1,2.26-.85c1.41-.48,3.33-1.21,5.38-2.15a57.74,57.74,0,0,0,5.14-2.68A13.36,13.36,0,0,1,300.7,226.22Z" style="fill:#8b5d54"></path><path d="M297.17,220.4c-.14.06-.62-.82-1.6-1.5s-2-.88-1.94-1a2.57,2.57,0,0,1,2.24.6C297,219.26,297.3,220.37,297.17,220.4Z" style="fill:#8b5d54"></path><path d="M292.79,215.88c-.15,0-.21-.7-.73-1.32s-1.17-.84-1.15-1,.21-.12.52,0a2.08,2.08,0,0,1,1,.69,2.05,2.05,0,0,1,.46,1.15C292.94,215.7,292.85,215.89,292.79,215.88Z" style="fill:#8b5d54"></path><path d="M301.28,225.2c-.15,0-.29-.61-.65-1.27s-.81-1.11-.72-1.23.75.2,1.17,1S301.42,225.21,301.28,225.2Z" style="fill:#8b5d54"></path></g><g id="freepik--speech-bubble--inject-135"><circle cx="344.55" cy="66.03" r="31" transform="translate(-5.01 95.68) rotate(-15.7)" style="fill:#fff"></circle><path d="M313.51,90.89s.34,0,.9.21a4.15,4.15,0,0,1,2,1.46,3.84,3.84,0,0,1,.69,1.56,3.47,3.47,0,0,1-.19,1.92,3.72,3.72,0,0,1-7,.11,3.3,3.3,0,0,1-.25-1.91,3.87,3.87,0,0,1,.64-1.58,4.15,4.15,0,0,1,1.95-1.53,8.59,8.59,0,0,1,.9-.23.62.62,0,0,0-.25,0,1.81,1.81,0,0,0-.29,0,2.59,2.59,0,0,0-.4.1,4.05,4.05,0,0,0-2.07,1.51,3.92,3.92,0,0,0-.72,1.66,3.6,3.6,0,0,0,.25,2A4.18,4.18,0,0,0,311.13,98a4,4,0,0,0,2.34.77,4,4,0,0,0,2.31-.85,4.28,4.28,0,0,0,1.38-1.82,3.72,3.72,0,0,0,.18-2.07,4.11,4.11,0,0,0-.77-1.63A4,4,0,0,0,314.45,91a2.35,2.35,0,0,0-.4-.08l-.3,0A.87.87,0,0,0,313.51,90.89Z" style="fill:#263238"></path><path d="M313.63,70.79s0-.17,0-.5l-.14-1.48c0-.33-.07-.69-.1-1.09s0-.84,0-1.32V64.86a6.15,6.15,0,0,1,0-.85c0-.29.06-.59.1-.9a29.83,29.83,0,0,1,2.14-8.72,31.21,31.21,0,0,1,6.48-9.94l1.18-1.2c.42-.37.86-.73,1.31-1.11l.66-.56A7.25,7.25,0,0,1,326,41l1.48-1,.75-.51.81-.44,1.63-.9c.56-.28,1.15-.5,1.74-.76l.88-.38.45-.19.46-.14A28.29,28.29,0,0,1,338,35.66c.66-.13,1.32-.3,2-.39l2-.21c.35,0,.69-.08,1-.09h1.05c.7,0,1.41,0,2.12,0a31.59,31.59,0,0,1,4.28.57l1.08.21.54.12.53.16,2.13.65c.71.25,1.39.57,2.09.85.35.15.71.27,1,.45l1,.54A35.13,35.13,0,0,1,362.89,41l1.82,1.48.46.38c.15.13.29.27.43.41l.85.83.85.84.77.91.78.93.39.46c.12.16.23.33.34.5l1.38,2,1.18,2.15a32.85,32.85,0,0,1,3.08,9.45,33.09,33.09,0,0,1-.09,9.94l-.48,2.4c-.24.78-.47,1.56-.71,2.33l-.18.58-.23.56-.46,1.11-.46,1.11-.56,1-.56,1.05-.28.52-.33.5-1.3,2a34,34,0,0,1-3,3.5l-.8.82c-.26.27-.57.49-.86.74-.58.48-1.14,1-1.73,1.44l-1.84,1.26-.46.32-.48.27-1,.53a33.89,33.89,0,0,1-3.92,1.83c-.66.25-1.35.44-2,.66l-1,.31c-.34.1-.68.15-1,.23l-2,.41c-.67.12-1.35.16-2,.24a29.36,29.36,0,0,1-4,.14H343a3.88,3.88,0,0,1-.48,0l-1-.09c-.63-.07-1.27-.1-1.88-.21l-1.83-.36-.9-.18-.87-.26-1.72-.52a5.77,5.77,0,0,1-.82-.31l-.81-.33c-.53-.23-1.07-.43-1.58-.67l-1.49-.78a31.22,31.22,0,0,1-9.16-7.53c-.28-.34-.57-.66-.83-1l-.71-1c-.24-.34-.46-.67-.69-1-.1-.16-.22-.32-.32-.49l-.28-.49q-.54-1-1.05-1.89c-.31-.61-.54-1.23-.8-1.79-.12-.29-.24-.56-.36-.83a6.5,6.5,0,0,1-.3-.8c-.16-.52-.32-1-.46-1.46s-.29-.87-.4-1.26-.16-.75-.22-1.07c-.14-.64-.25-1.12-.32-1.45s-.12-.5-.12-.5l.09.5c.07.34.16.82.29,1.46q.09.48.21,1.08c.1.39.25.8.38,1.26s.3,1,.46,1.48a5.62,5.62,0,0,0,.3.8l.35.83c.25.57.48,1.19.79,1.8l1,1.91.28.5c.1.17.21.32.32.49s.45.65.68,1,.47.69.71,1l.83,1a31.05,31.05,0,0,0,9.2,7.61l1.49.79c.51.24,1.05.45,1.59.68l.81.33a4.87,4.87,0,0,0,.83.31l1.73.53.87.27.91.18,1.84.37c.62.11,1.26.14,1.9.21l1,.1c.16,0,.32,0,.48,0h.49a28.17,28.17,0,0,0,4-.14c.67-.08,1.35-.11,2-.23l2-.42c.34-.07.69-.12,1-.22l1-.32c.68-.22,1.36-.4,2-.65a33.58,33.58,0,0,0,3.95-1.85l1-.53.48-.27.46-.32,1.86-1.27c.6-.46,1.17-1,1.75-1.45.29-.25.6-.48.87-.75l.81-.83a35.87,35.87,0,0,0,3.06-3.53l1.31-2,.33-.5.28-.53.57-1.06.56-1.06.47-1.12.47-1.12.23-.56.18-.59.72-2.35c.16-.8.32-1.61.49-2.42a33.76,33.76,0,0,0,.09-10,33.41,33.41,0,0,0-3.11-9.53l-1.2-2.17c-.46-.68-.93-1.35-1.39-2-.11-.17-.22-.34-.35-.51l-.39-.46-.78-.93-.78-.93-.86-.84-.86-.84-.43-.42-.46-.37-1.85-1.49a33.52,33.52,0,0,0-4-2.45l-1-.54c-.33-.18-.7-.3-1.05-.45-.71-.29-1.4-.6-2.11-.86l-2.15-.65-.53-.16c-.18-.05-.37-.08-.55-.12l-1.09-.22a31.93,31.93,0,0,0-4.32-.56c-.71,0-1.43,0-2.13,0h-1.06c-.35,0-.7.07-1.05.1L340,35c-.68.1-1.35.27-2,.4a28.34,28.34,0,0,0-3.85,1.06l-.46.15a3.57,3.57,0,0,0-.45.19l-.9.38c-.58.26-1.18.48-1.74.77l-1.65.91-.81.45-.75.51-1.49,1a6.2,6.2,0,0,0-.7.54l-.67.57c-.44.38-.9.74-1.32,1.12L322,44.31a31.16,31.16,0,0,0-6.48,10,29.7,29.7,0,0,0-2.11,8.77c0,.31-.06.61-.08.9a5,5,0,0,0-.05.85c0,.56,0,1.07,0,1.55s0,.92,0,1.32.09.77.12,1.09c.07.65.13,1.14.17,1.48Z" style="fill:#263238"></path><path d="M352.63,66.58a3,3,0,1,0,3-3A3,3,0,0,0,352.63,66.58Z" style="fill:#263238"></path><circle cx="345.18" cy="66.58" r="3.04" style="fill:#263238"></circle><circle cx="334.69" cy="66.58" r="3.04" style="fill:#263238"></circle></g><g id="freepik--light-bulb--inject-135"><path d="M144.19,154.61,114,154.54a2.27,2.27,0,0,1-2.26-2.27h0a2.27,2.27,0,0,1,2.27-2.26l30.15.07a2.27,2.27,0,0,1,2.26,2.27h0A2.27,2.27,0,0,1,144.19,154.61Z" style="fill:#263238"></path><path d="M144.19,156.58,114,156.51a2.27,2.27,0,0,0,0,4.53h3.31l4.38,8.37a2.93,2.93,0,0,0,2.57,1.56l10.77,0a2.91,2.91,0,0,0,2.59-1.57l4.29-8.33h2.25a2.27,2.27,0,1,0,0-4.53Z" style="fill:#263238"></path><path d="M137.08,170.14c0,.07-.8-.28-2.07-.64a16.94,16.94,0,0,0-5.12-.66,17.2,17.2,0,0,0-5.07.93c-1.25.43-2,.82-2,.75a5.86,5.86,0,0,1,1.91-1.08,14.74,14.74,0,0,1,10.41-.28A6.17,6.17,0,0,1,137.08,170.14Z" style="fill:#455a64"></path><path d="M142,161.21c0,.13-5.45.23-12.17.21s-12.18-.13-12.18-.27,5.45-.23,12.18-.22S142,161.07,142,161.21Z" style="fill:#455a64"></path><path d="M140.1,164.78a16.85,16.85,0,0,1-3,.29c-1.84.12-4.38.21-7.2.25s-5.35,0-7.19-.08a16.17,16.17,0,0,1-3-.22,18.85,18.85,0,0,1,3-.12l7.19-.07,7.18-.1A18.07,18.07,0,0,1,140.1,164.78Z" style="fill:#455a64"></path><ellipse cx="128.4" cy="100.7" rx="40.94" ry="41.22" style="fill:#f5f5f5"></ellipse><path d="M113.24,119.08c.21-1.8,1.61-3.62.81-5.24-.9-1.81-3.53-1.51-5.37-2.32-2.58-1.14-3.38-4.34-5.06-6.6-1.51-2-5-4.24-7.72-3.63a3.27,3.27,0,0,0-2.81,3l-.25,0c-.71-.07-1.56-.11-2-.71s0-1.72-.48-2.4a3.91,3.91,0,0,0-1-.77c-.35-.24-.65-.71-.44-1.08s.63-.39.86-.68a.66.66,0,0,0,0-.81c-.73-.87-1.56.91-2,1.33a2.34,2.34,0,0,1-.33.31h0c0,.08,0,.15,0,.22,0,.25,0,.5,0,.74s0,.5,0,.74,0,.4,0,.6,0,.4,0,.6a7,7,0,0,1,1.26.62c.79.46,1.68,1.07,1.73,2a.78.78,0,0,0,.09.43.59.59,0,0,0,.38.2,11.2,11.2,0,0,0,2.08.29c0,.82.07,1.68.06,2.5a28.28,28.28,0,0,0-.28,3.53c.19,1.66,1.34,3,2.34,4.35,3.83,5.11,5.89,11,8.12,17h0c.42.33,1,.77,1.43,1.08l1,.68c.34.24.65.43,1,.65l.55.35c0-.07,0,.05,0,0-.9-2-.9-4.71,1-5.69a4.28,4.28,0,0,0,1.1-.58c.86-.81.16-2.5,1-3.31.48-.46,1.24-.43,1.84-.7a3,3,0,0,0,1.35-3.07A18.64,18.64,0,0,1,113.24,119.08Z" style="fill:#e0e0e0"></path><path d="M90,88.9a1.89,1.89,0,0,1,2.67.09,2.82,2.82,0,0,1,.22,2.09c-.15,1-.3,1.92-.46,2.88a1.57,1.57,0,0,0,0,.86c.29.61,1.28.49,1.67,0a2.67,2.67,0,0,0,.24-2,3.63,3.63,0,0,1,0-2c.64-1.54,2.94-1.31,4.28-2.32a7.19,7.19,0,0,0,1.69-2.57,2.83,2.83,0,0,1,2.35-1.78c.35,0,.69.14,1,.12a1.39,1.39,0,0,0,.9-2.25,2.56,2.56,0,0,1-.46-.47.85.85,0,0,1,.33-1,2.38,2.38,0,0,1,1.09-.35l2.62-.42c1-.15,2.2-.64,2.07-1.61s-1.26-1.21-1.42-2a3.12,3.12,0,0,0-.11-.61c-.27-.53-1.07-.32-1.58,0a1.27,1.27,0,0,0-1.92-.62c-.52.43-.58,1.18-.77,1.82a8.68,8.68,0,0,1-2.84,3.83,2.39,2.39,0,0,1-1.38.78c-.54,0-1.1-.55-.85-1s.63-.52.58-.88-.85-.42-1-.85c.32-1.29,1.79-1.82,2.91-2.5a7,7,0,0,0,3-3.66.94.94,0,0,0,0-.75c-.17-.32-.61-.38-1-.38-.86,0-1.95.11-2.26.92a8.83,8.83,0,0,0-.15,1.38c-.31,1.35-2.15,1.49-3.28,2.3a10,10,0,0,1-1.27,1,4.71,4.71,0,0,1-1.72.28h-.47c-.36.5-.64,1-1,1.46s-.67,1.09-1,1.62a40.25,40.25,0,0,0-3.48,7.94c-.32,1-.59,2-.84,3s-.41,2-.58,3a12,12,0,0,0,.74-2.58A4.71,4.71,0,0,1,90,88.9Z" style="fill:#e0e0e0"></path><path d="M124.4,70.38c.39-.5.28-1.23.53-1.82.42-1,1.71-1.32,2.16-2.28.17-.37.21-.83.52-1.1s.62-.27.89-.48a1.25,1.25,0,0,0-.29-1.92c-1.6-1-4.56.16-5.94,1.16-1.79,1.29-3.53,2.84-5.91,2.69a4.69,4.69,0,0,0-1.94,0c-.62.23-1,1.15-.47,1.54.3.22.71.16,1,.31a1.31,1.31,0,0,1,.38,1.77c-.3.61-.84,1.06-1.19,1.64a3.06,3.06,0,0,0-.44,1.87,1.76,1.76,0,0,0,.55,1.21c.74.58,1.87.08,2.49-.63a9.49,9.49,0,0,1,1.87-2.11,4.66,4.66,0,0,1,1.33-.46l3.09-.73A2.21,2.21,0,0,0,124.4,70.38Z" style="fill:#e0e0e0"></path><path d="M169.34,100.39c0-.59,0-1.18-.06-1.76s-.05-1.17-.11-1.74-.09-.94-.15-1.4-.13-1-.21-1.52a37.74,37.74,0,0,0-.9-4.12c-.15-.53-.41-1.1-.58-1.63s-.36-1-.55-1.56h0c-.21-.39-.43-.77-.67-1.15-2.27-3.6-5.58-6.42-8.08-9.87-.81-1.12-1.45-2-2.89-2.27-2.14-.33-3.22.89-4.74-1.14-.41-.54-1.12-1-1.72-.72.15.43.32.87.47,1.31a.54.54,0,0,1,0,.28c0,.31-.48.39-.74.22a2.57,2.57,0,0,1-.57-.73,2.09,2.09,0,0,0-3.08-.25,1.17,1.17,0,0,0-.68-1,1.4,1.4,0,0,1-1.76,1.13c-.12-.39.58-.46.83-.8s0-.76-.34-1a4.49,4.49,0,0,0-2.82-1.1,3.8,3.8,0,0,1-1.93-.23c-.33-.19-.56-.51-.9-.7a2.49,2.49,0,0,0-2.34.37,4.59,4.59,0,0,0-2.37,2.32c-.35,1.08.43,2.54,1.56,2.4a2.12,2.12,0,0,1,.86-.1,1,1,0,0,1,.61,1,3,3,0,0,0,.19,1.21c.2.37.79.55,1,.21a2.26,2.26,0,0,0,.33-2.08,2.76,2.76,0,0,1,.15-2.12c.44-.58,1.67-.4,1.58.33,0,.43-.53.74-.52,1.17s.56.67,1,.66a4.53,4.53,0,0,1,1.32-.07c.43.1.77.67.46,1-.53.61-1.93-.43-2.21.33-.08.19,0,.41,0,.62,0,.64-.85.87-1.48.95a3.55,3.55,0,0,1-1.89-.14,1.19,1.19,0,0,1-.64-1.57.72.72,0,0,0-1,.36,2,2,0,0,0-.07,1.18c-.68-.15-1.28.42-1.66,1s-.76,1.23-1.41,1.43-1.57-.07-1.91.53c-.45.78.84,1.76.39,2.53-.26.44-.88.42-1.37.56a2.12,2.12,0,0,0-.87,3.29,2.54,2.54,0,0,0,3.6,0,11.28,11.28,0,0,0,1.39-2.41c.48-.8,1.37-1.53,2.26-1.27a2.77,2.77,0,0,1,.93.59L136.4,84c.28.23.59.53.56.89a3.46,3.46,0,0,1-.35.79c-.27.78.86,1.53,1.57,1.1a1.57,1.57,0,0,0,.31-2.2c-.68-.93-2.2-1.39-2.16-2.55.78-.63,2,0,2.46.93s.46,2,.85,2.89,1.45,1.75,2.34,1.3l-.69-2.4c.57-.42,1.22.82,1.9.61.42-.13.47-.72.29-1.13A5.31,5.31,0,0,1,142.9,83a1.33,1.33,0,0,1,1.55-1.36A2,2,0,0,1,146,83.33a3.52,3.52,0,0,0,.21.92c.3.62,1.07.81,1.7,1.07s1.31.9,1,1.54c-.12.28-.41.54-.31.83s.47.36.47.63-.19.31-.36.38c-.43.17-.89.23-1.31.43a1.2,1.2,0,0,0-.76,1.05c.06.65.83,1,1.19,1.5a7.88,7.88,0,0,1,.52,1.77,5.91,5.91,0,0,0,1,1.42c1.07,1.46,1.32,3.35,1.85,5.08.23.79.66,1.66,1.46,1.81a2.48,2.48,0,0,0,1.3-.25,7.79,7.79,0,0,0,3.17-1.89,2.66,2.66,0,0,0,.25-3.41A.66.66,0,0,0,157,96a1.15,1.15,0,0,0-.61.21,1.74,1.74,0,0,1-1.81-.39,5.09,5.09,0,0,1-1.07-1.61l-1-1.94a1.15,1.15,0,0,1,1.39.13,8.3,8.3,0,0,1,.94,1.17,6.1,6.1,0,0,0,4.09,1.92,3.47,3.47,0,0,1,1.15.24c1.15.52,1.48,2.21,2.69,2.57a8.58,8.58,0,0,1,1,.24,1.87,1.87,0,0,1,.86,1.28,21.1,21.1,0,0,0,.76,2.86,2.65,2.65,0,0,0,2.19,1.75,2.32,2.32,0,0,0,1.62-.71c0-.9.11-1.82.11-2.73C169.35,100.76,169.35,100.58,169.34,100.39Z" style="fill:#e0e0e0"></path><path d="M152.77,117.38c-.61.12-.73.48-1.07.93s-1,1.18-1.44,1.76c-.66,1-.06,2.51-.94,3.34a6.47,6.47,0,0,0-.57.47,1,1,0,0,0,.21,1.43,1.41,1.41,0,0,0,1.53,0,2.22,2.22,0,0,0,.93-1.27,2.16,2.16,0,0,1,.48-1c.5-.44,1.28-.11,1.94-.2C156.64,122.41,155.44,116.85,152.77,117.38Z" style="fill:#e0e0e0"></path><path d="M153.72,109.65c1.61-1.4,2.27-4.56.26-5.29-.76-.27-1.64,0-2.39-.34a3.8,3.8,0,0,1-1.8-2.48L147,93.72c-.57-1.57-1.42-3.39-3.07-3.62a8.93,8.93,0,0,0-2.77.49c-3.2.58-8.58-7.16-11-2-.34-1.42-2.64-.89-3.37.37s-.89,2.93-2.06,3.8c-.89.66-2.19.7-2.92,1.55a3.71,3.71,0,0,0-.66,2.2c-.13,1.49-.25,3-.37,4.47a6.12,6.12,0,0,0,.41,3.53c.59,1,2.15,1.63,3,.82a8.67,8.67,0,0,0,.91-1.38,2.33,2.33,0,0,1,2.39-.82,4,4,0,0,1,1.82,1.28c4.17,4.48,5.66,10.86,5.84,17a9.93,9.93,0,0,0,.45,3.31c.48,1.22,1.5,2.21,1.8,3.49.23,1,0,2.06.43,3,.78,1.69,3.37,1.76,4.78.55s1.9-3.15,2.18-5,.47-3.77,1.5-5.31a18.65,18.65,0,0,0,2-2.79c.62-1.49.16-3.24.74-4.75C149.84,111.93,152.1,111.05,153.72,109.65Z" style="fill:#e0e0e0"></path><polygon points="112.36 137.09 112.36 148.03 147.03 148.51 147.03 133.06 112.36 137.09" style="fill:#f5f5f5"></polygon><path d="M134.21,147.91s0-.16,0-.49.1-.83.17-1.44c.16-1.27.39-3.15.75-5.55s.84-5.34,1.61-8.71a59.78,59.78,0,0,1,3.66-11.14,38.83,38.83,0,0,1,3.31-6,7.42,7.42,0,0,1,2.75-2.45,4.12,4.12,0,0,1,3.8.13,2.76,2.76,0,0,1,1.09,3.65,5.73,5.73,0,0,1-3.1,2.66A11,11,0,0,1,140,118a11.13,11.13,0,0,1-5.64-6.7,8.42,8.42,0,0,1-.23-4.62,3.6,3.6,0,0,1,3.65-2.78,2.57,2.57,0,0,1,2,1.42,3.58,3.58,0,0,1,.31,2.47,7.77,7.77,0,0,1-2.82,4,11.9,11.9,0,0,1-9.35,2.69,10.37,10.37,0,0,1-7.73-5.79,6,6,0,0,1-.26-4.86,3,3,0,0,1,1.76-1.76,2.94,2.94,0,0,1,2.46.23,3.94,3.94,0,0,1,1.69,1.76,6.34,6.34,0,0,1,.61,2.31,11.59,11.59,0,0,1-.62,4.58,12,12,0,0,1-5.67,6.71,12.16,12.16,0,0,1-8.29,1.12,6.35,6.35,0,0,1-3.6-1.93,3.1,3.1,0,0,1-.22-3.86,2.62,2.62,0,0,1,1.81-.87,3.8,3.8,0,0,1,1.91.37,5.76,5.76,0,0,1,2.44,2.76c1,2.18,1.81,4.29,2.62,6.31,3.19,8.08,5.45,14.74,7,19.36.75,2.3,1.31,4.11,1.69,5.33.17.6.31,1.06.41,1.39s.13.48.13.48-.07-.15-.18-.46l-.46-1.38-1.77-5.3c-1.57-4.6-3.88-11.24-7.1-19.29-.82-2-1.65-4.14-2.64-6.27a5.34,5.34,0,0,0-2.28-2.57,2.4,2.4,0,0,0-3,3.74,5.93,5.93,0,0,0,3.37,1.76,11.66,11.66,0,0,0,8-1.1,11.45,11.45,0,0,0,5.43-6.45,11,11,0,0,0,.59-4.39,4.35,4.35,0,0,0-2-3.69,2.54,2.54,0,0,0-2.08-.2,2.6,2.6,0,0,0-1.48,1.5,5.63,5.63,0,0,0,.26,4.47,10,10,0,0,0,7.37,5.51,11.48,11.48,0,0,0,9-2.58,7.48,7.48,0,0,0,2.66-3.71,3.17,3.17,0,0,0-.27-2.14,2.1,2.1,0,0,0-1.66-1.16,2.81,2.81,0,0,0-2,.64,3.42,3.42,0,0,0-1.15,1.79,8,8,0,0,0,.22,4.35,10.56,10.56,0,0,0,13.37,7,5.28,5.28,0,0,0,2.87-2.43,2.37,2.37,0,0,0-.92-3.12,3.72,3.72,0,0,0-3.43-.12,6.92,6.92,0,0,0-2.6,2.32,37.9,37.9,0,0,0-3.3,5.91,59.61,59.61,0,0,0-3.71,11.06c-.8,3.35-1.3,6.28-1.69,8.67s-.65,4.24-.84,5.53c-.1.62-.17,1.09-.22,1.44S134.21,147.91,134.21,147.91Z" style="fill:#263238"></path><path d="M107.34,69.51c0,.06-1,.52-2.56,1.61a28.61,28.61,0,0,0-6,5.55,31.37,31.37,0,0,0-5.62,10.69,35.51,35.51,0,0,0-1,14.73,43.9,43.9,0,0,0,4.49,14.13,56.28,56.28,0,0,0,6.74,10.13,71.56,71.56,0,0,0,5.62,6l1.63,1.54a4.78,4.78,0,0,1,.55.56,4.33,4.33,0,0,1-.62-.48c-.4-.32-1-.82-1.7-1.47a63.11,63.11,0,0,1-5.76-5.92,54.66,54.66,0,0,1-6.88-10.15,43.63,43.63,0,0,1-4.58-14.29,35.29,35.29,0,0,1,1.1-14.93,31.41,31.41,0,0,1,5.79-10.79A27.48,27.48,0,0,1,104.67,71a17.89,17.89,0,0,1,2-1.11A6.49,6.49,0,0,1,107.34,69.51Z" style="fill:#fff"></path><path d="M169.34,100.7s0,.27,0,.8,0,1.31-.06,2.34a44,44,0,0,1-1.6,8.86,41.34,41.34,0,0,1-20.56,24.87l.1-.17c0,3.5,0,7.23,0,11.11v.21H147l-34.67-.45h-.24V148c0-2.94,0-6.14,0-9.39l.15.23a45.37,45.37,0,0,1-8-4.53,42.78,42.78,0,0,1-7-6.4,41.56,41.56,0,0,1-9-17.32,42.28,42.28,0,0,1-1-14.14,42.79,42.79,0,0,1,3.67-13.27,44.19,44.19,0,0,1,3.29-5.87c.66-.9,1.32-1.78,2-2.67s1.46-1.64,2.17-2.46a42.59,42.59,0,0,1,10-7.84,44.16,44.16,0,0,1,11.37-4.23c1-.19,1.94-.31,2.9-.46.48-.07,1-.16,1.43-.21l1.44-.08c1,0,1.9-.11,2.84-.12l2.8.16a17.72,17.72,0,0,1,2.73.35c.89.17,1.8.26,2.66.5a39.42,39.42,0,0,1,5,1.59c.8.33,1.6.61,2.36,1L146.33,64l1.09.56,1,.65,2,1.28a45.41,45.41,0,0,1,11.87,12A41.84,41.84,0,0,1,167.79,90c.23.85.45,1.65.65,2.4s.26,1.48.39,2.14.21,1.28.3,1.85a15,15,0,0,1,.11,1.54q.06,1.36.09,2.1c0,.47,0,.71,0,.71s0-.24-.06-.71-.08-1.19-.15-2.09a13,13,0,0,0-.13-1.54c-.1-.56-.21-1.17-.32-1.83s-.2-1.39-.41-2.13-.44-1.54-.68-2.38a41.81,41.81,0,0,0-5.5-11.42,45.17,45.17,0,0,0-11.84-11.83l-2-1.27-1-.64-1.09-.55-2.2-1.12c-.76-.35-1.56-.62-2.34-.94a37.23,37.23,0,0,0-5-1.56c-.85-.24-1.74-.32-2.63-.49a17.2,17.2,0,0,0-2.69-.34l-2.77-.15c-.93,0-1.86.09-2.81.13l-1.42.07c-.48.06-.95.14-1.42.21-1,.16-1.91.28-2.87.46a44.06,44.06,0,0,0-11.23,4.21,42.27,42.27,0,0,0-9.91,7.76c-.71.81-1.48,1.57-2.15,2.44l-1.95,2.63a43.71,43.71,0,0,0-3.24,5.8A40.78,40.78,0,0,0,88.9,110.5a41.28,41.28,0,0,0,8.84,17.1,42.69,42.69,0,0,0,6.87,6.33,44.91,44.91,0,0,0,7.85,4.48l.15.06v.17c0,3.25,0,6.45,0,9.39l-.24-.24,34.67.51-.21.21c0-3.88,0-7.61,0-11.11v-.11l.1-.06a41.26,41.26,0,0,0,20.53-24.59,44.44,44.44,0,0,0,1.7-8.81c.05-1,.09-1.79.12-2.33S169.34,100.7,169.34,100.7Z" style="fill:#263238"></path><path d="M166,95.25c-.08,0-.38-1.46-1.12-3.76A42.4,42.4,0,0,0,161,82.9a42.93,42.93,0,0,0-5.7-7.5c-1.67-1.75-2.83-2.71-2.77-2.78a3.86,3.86,0,0,1,.87.61,24.49,24.49,0,0,1,2.16,1.91,36.67,36.67,0,0,1,9.65,16.24,24.5,24.5,0,0,1,.65,2.82A3.93,3.93,0,0,1,166,95.25Z" style="fill:#fff"></path><path d="M56.54,71.69a2.27,2.27,0,1,1-2.27-2.27A2.27,2.27,0,0,1,56.54,71.69Z" style="fill:#8BBEB2"></path><path d="M122.06,71.69a2.27,2.27,0,1,1-2.27-2.27A2.27,2.27,0,0,1,122.06,71.69Z" style="fill:#8BBEB2"></path><path d="M208.85,60a2.27,2.27,0,1,1-2.27-2.27A2.27,2.27,0,0,1,208.85,60Z" style="fill:#8BBEB2"></path><path d="M134.75,88.42a2.27,2.27,0,1,1-2.27-2.27A2.27,2.27,0,0,1,134.75,88.42Z" style="fill:#8BBEB2"></path><circle cx="161.89" cy="111.49" r="1.39" style="fill:#8BBEB2"></circle><circle cx="101.49" cy="88.42" r="1.39" style="fill:#8BBEB2"></circle><circle cx="115.81" cy="108.62" r="1.57" style="fill:#8BBEB2"></circle><circle cx="181.44" cy="77.83" r="1.39" style="fill:#8BBEB2"></circle><circle cx="196.84" cy="97.59" r="2.42" style="fill:#8BBEB2"></circle><circle cx="73.94" cy="101.74" r="1.39" style="fill:#8BBEB2"></circle><circle cx="86.44" cy="63.42" r="1.39" style="fill:#8BBEB2"></circle><circle cx="59.21" cy="110.1" r="1.19" style="fill:#8BBEB2"></circle><circle cx="75.83" cy="79.63" r="1.19" style="fill:#8BBEB2"></circle><path d="M131.4,118.56a1.19,1.19,0,1,1-1.19-1.19A1.19,1.19,0,0,1,131.4,118.56Z" style="fill:#8BBEB2"></path><circle cx="178.06" cy="103.55" r="1.19" style="fill:#8BBEB2"></circle><circle cx="201.63" cy="79.99" r="1.19" style="fill:#8BBEB2"></circle><circle cx="43.48" cy="93.48" r="1.19" style="fill:#8BBEB2"></circle><circle cx="98.68" cy="120.5" r="1.19" style="fill:#8BBEB2"></circle><circle cx="164.47" cy="89.78" r="1.19" style="fill:#8BBEB2"></circle><circle cx="169.75" cy="63.42" r="1.39" style="fill:#8BBEB2"></circle><path d="M101.49,88.42a2,2,0,0,1,.32-.35l1-.94,3.72-3.48,13.13-12.13.19-.17.16.2,10.38,13c1,1.31,2.07,2.61,3,3.83l0,0c7.59,7,14.74,12.66,20,16.59,2.63,2,4.76,3.5,6.24,4.56l1.69,1.22a3.06,3.06,0,0,1,.57.45,5.68,5.68,0,0,1-.62-.37l-1.75-1.14c-1.51-1-3.68-2.51-6.33-4.45A233.11,233.11,0,0,1,133,88.73h0l0,0L130,84.88l-10.34-13,.34,0-13.25,12-3.81,3.39-1,.88A1.92,1.92,0,0,1,101.49,88.42Z" style="fill:#8BBEB2"></path><path d="M86.22,63.82a5,5,0,0,1,.74.86c.45.58,1.08,1.42,1.84,2.49,1.51,2.12,3.51,5.12,5.55,8.54s3.71,6.61,4.85,9c.57,1.17,1,2.13,1.3,2.8a4.18,4.18,0,0,1,.4,1.06,4.9,4.9,0,0,1-.58-1c-.4-.74-.88-1.65-1.45-2.72-1.22-2.3-3-5.45-5-8.86s-4-6.43-5.4-8.61L86.8,64.8A4.81,4.81,0,0,1,86.22,63.82Z" style="fill:#8BBEB2"></path><path d="M54.27,71.69c.13.07-2.18,5.13-5.16,11.32s-5.5,11.15-5.63,11.08S45.66,89,48.64,82.78,54.14,71.63,54.27,71.69Z" style="fill:#8BBEB2"></path><path d="M98.8,120.92a2.59,2.59,0,0,1,0-.61c0-.45,0-1,.08-1.74.09-1.58.23-3.74.39-6.39.38-5.45.9-12.87,1.47-21.07.08-1.07.16-2.13.23-3.13l.18.27-18-6-5.35-1.85-1.44-.52a2.51,2.51,0,0,1-.49-.21,1.65,1.65,0,0,1,.52.12l1.47.43,5.4,1.7,18.08,5.87.2.07,0,.2c-.07,1-.15,2-.23,3.13-.63,8.19-1.2,15.6-1.63,21-.22,2.65-.41,4.81-.55,6.38-.07.71-.13,1.28-.18,1.74A2.49,2.49,0,0,1,98.8,120.92Z" style="fill:#8BBEB2"></path><path d="M54.27,71.69s.13.17.37.52.59.87,1,1.54l4,5.94,14.47,22-.24-.07,27.53-13.36.18-.09.12.16,14.11,20.45-.41,0,14.72-17.83,2.17-2.63,0,0,0,0,37.29-25,.18-.12.13.17,11.68,14.42.14.18-.18.13c-6.39,4.47-12.08,8.46-17,11.92l-.35.24.09-.41c1.69-8.28,3-14.87,4-19.4.47-2.23.83-4,1.08-5.16.12-.57.22-1,.29-1.32a4.17,4.17,0,0,1,.11-.45s0,.15-.07.46l-.24,1.33q-.34,1.8-1,5.18c-.89,4.54-2.18,11.13-3.81,19.42l-.26-.17c4.91-3.47,10.59-7.48,16.95-12l0,.31L169.57,63.57l.31,0-37.26,25,.06,0-2.17,2.63c-5,6.11-10,12.07-14.73,17.82l-.21.26-.19-.27L101.3,88.55l.3.08L74,101.91l-.15.07-.09-.13-14.32-22c-1.67-2.6-3-4.62-3.87-6l-1-1.57C54.37,71.88,54.27,71.69,54.27,71.69Z" style="fill:#8BBEB2"></path><path d="M196.84,97.33c-.11.09-3.65-4.27-7.9-9.74s-7.61-10-7.5-10.06,3.66,4.28,7.91,9.74S197,97.24,196.84,97.33Z" style="fill:#8BBEB2"></path><path d="M206.32,59.93a5.76,5.76,0,0,1-1,.82l-2.75,2.08c-2.33,1.73-5.58,4.09-9.18,6.68s-6.88,4.91-9.27,6.56L181.32,78a5.7,5.7,0,0,1-1.09.66,6.21,6.21,0,0,1,1-.82l2.74-2.07c2.34-1.74,5.58-4.1,9.19-6.69s6.88-4.91,9.27-6.56l2.84-1.94A6.29,6.29,0,0,1,206.32,59.93Z" style="fill:#8BBEB2"></path><path d="M132.48,88.42a5.68,5.68,0,0,1-1.21.12c-.78,0-1.92.09-3.31.13-2.8.09-6.66.16-10.93.19s-8.14,0-10.94-.08c-1.4,0-2.53-.08-3.31-.13a5,5,0,0,1-1.21-.12,5.35,5.35,0,0,1,1.22-.08l3.31,0L117,88.34l10.93,0,3.31,0A5.35,5.35,0,0,1,132.48,88.42Z" style="fill:#8BBEB2"></path></g></svg>